<svg id="svg" version="1.1" xmlns="http://www.w3.org/2000/svg" xmlns:xlink="http://www.w3.org/1999/xlink" width="400" height="400" viewBox="0, 0, 400,400"><g id="svgg"><path id="path0" d="M130.016 86.370 C 129.749 86.870,129.619 91.909,129.653 100.474 C 129.709 114.638,130.200 137.692,130.325 132.033 C 130.414 128.039,130.906 128.093,131.229 132.132 C 131.428 134.626,131.500 134.831,131.779 133.700 L 132.100 132.400 150.021 132.400 C 166.752 132.400,167.953 132.354,168.124 131.700 C 168.238 131.264,168.325 131.410,168.354 132.087 C 168.386 132.844,168.570 133.110,168.960 132.960 C 169.409 132.788,169.571 133.600,169.780 137.073 C 169.923 139.453,170.097 141.760,170.167 142.200 C 170.237 142.640,170.273 130.130,170.247 114.400 L 170.200 85.800 150.316 85.696 C 130.978 85.595,130.421 85.614,130.016 86.370 M171.714 87.697 C 171.148 88.428,170.748 89.679,171.163 89.423 C 171.560 89.177,172.169 90.334,172.046 91.100 C 172.001 91.375,172.333 91.600,172.782 91.600 C 173.333 91.600,173.600 91.861,173.600 92.400 C 173.600 93.283,174.227 93.488,174.517 92.700 C 174.619 92.425,174.833 92.695,174.994 93.300 C 175.259 94.296,175.636 94.584,176.500 94.447 C 176.665 94.421,176.800 94.741,176.800 95.157 C 176.800 95.574,177.070 96.018,177.400 96.145 C 177.730 96.271,178.000 96.651,178.000 96.987 C 178.000 97.342,178.352 97.600,178.837 97.600 C 179.338 97.600,179.759 97.921,179.884 98.400 C 179.999 98.840,180.412 99.200,180.802 99.200 C 181.232 99.200,181.489 99.476,181.456 99.900 C 181.425 100.285,181.629 100.554,181.909 100.497 C 182.189 100.440,182.593 100.856,182.808 101.421 C 183.023 101.986,183.379 102.337,183.599 102.200 C 183.820 102.064,184.000 102.311,184.000 102.749 C 184.000 103.269,184.311 103.589,184.900 103.672 C 185.501 103.758,185.761 104.033,185.682 104.500 C 185.602 104.977,185.826 105.200,186.382 105.200 C 186.864 105.200,187.200 105.462,187.200 105.837 C 187.200 106.188,187.554 106.567,187.987 106.681 C 188.419 106.794,188.882 107.227,189.014 107.643 C 189.146 108.059,189.512 108.400,189.827 108.400 C 190.142 108.400,190.400 108.572,190.400 108.782 C 190.400 108.992,190.858 109.622,191.418 110.182 C 191.978 110.742,192.608 111.200,192.818 111.200 C 193.028 111.200,193.200 111.560,193.200 112.000 C 193.200 112.517,193.467 112.800,193.953 112.800 C 194.370 112.800,194.800 113.157,194.916 113.600 C 195.031 114.040,195.391 114.400,195.716 114.400 C 196.041 114.400,196.401 114.760,196.516 115.200 C 196.631 115.640,197.012 116.000,197.363 116.000 C 197.713 116.000,198.000 116.270,198.000 116.600 C 198.000 116.930,198.249 117.200,198.553 117.200 C 198.858 117.200,199.201 117.560,199.316 118.000 C 199.431 118.440,199.812 118.800,200.163 118.800 C 200.533 118.800,200.800 119.135,200.800 119.600 C 200.800 120.133,201.067 120.400,201.600 120.400 C 202.149 120.400,202.400 120.667,202.400 121.249 C 202.400 121.958,202.499 122.016,203.000 121.600 C 203.507 121.179,203.639 121.295,203.850 122.351 C 204.053 123.367,204.296 123.601,205.150 123.606 C 205.942 123.611,206.058 123.702,205.621 123.979 C 205.164 124.268,205.260 124.400,206.075 124.604 C 206.807 124.788,207.055 125.068,206.925 125.566 C 206.776 126.136,207.021 126.279,208.227 126.324 C 209.813 126.384,210.723 126.800,209.267 126.800 C 208.367 126.800,208.018 127.583,208.900 127.622 C 214.620 127.876,246.691 127.456,247.094 127.122 C 247.499 126.786,247.561 126.836,247.366 127.343 C 247.173 127.847,247.354 128.000,248.145 128.000 C 248.945 128.000,249.125 127.844,248.950 127.300 C 248.762 126.718,248.795 126.700,249.144 127.193 C 249.577 127.807,255.394 128.238,255.018 127.629 C 254.917 127.466,255.089 127.333,255.400 127.333 C 255.711 127.333,255.878 127.474,255.771 127.646 C 255.665 127.819,256.618 128.014,257.889 128.080 C 259.759 128.177,260.180 128.324,260.094 128.849 C 260.004 129.401,260.454 129.499,263.094 129.504 C 268.026 129.515,267.951 129.500,267.716 130.400 C 267.535 131.093,267.704 131.200,268.977 131.200 C 270.047 131.200,270.365 131.064,270.147 130.700 C 269.940 130.356,270.056 130.370,270.519 130.745 C 270.889 131.045,271.075 131.478,270.934 131.707 C 270.784 131.949,270.870 132.004,271.138 131.838 C 271.392 131.681,271.600 131.703,271.600 131.887 C 271.600 132.070,272.470 132.216,273.534 132.210 C 275.233 132.201,275.457 132.297,275.380 133.000 C 275.309 133.647,275.551 133.815,276.646 133.877 C 277.683 133.935,277.999 133.795,277.994 133.277 C 277.989 132.694,277.934 132.683,277.600 133.200 C 277.367 133.561,277.210 133.610,277.206 133.324 C 277.196 132.558,277.983 132.291,278.245 132.972 C 278.376 133.315,278.663 133.485,278.882 133.349 C 279.113 133.207,279.095 133.448,278.840 133.925 C 278.598 134.378,278.400 134.894,278.400 135.074 C 278.401 135.633,280.530 135.554,281.374 134.963 C 282.308 134.309,282.061 134.244,280.660 134.777 C 279.907 135.063,279.615 135.015,279.447 134.577 C 279.222 133.992,279.598 133.844,280.944 133.986 C 281.388 134.033,281.580 133.891,281.420 133.633 C 281.273 133.395,280.928 133.200,280.653 133.200 C 280.378 133.200,279.808 132.947,279.385 132.639 C 278.686 132.127,278.759 132.089,280.209 132.209 C 283.875 132.511,334.959 132.393,335.170 132.082 C 335.708 131.287,336.846 131.246,337.594 131.994 C 338.029 132.429,338.476 132.601,338.609 132.385 C 338.906 131.904,338.497 131.200,337.920 131.200 C 337.683 131.200,337.230 130.885,336.914 130.500 C 336.539 130.042,336.430 130.007,336.600 130.400 C 336.773 130.800,336.670 130.769,336.290 130.306 C 335.977 129.925,335.594 129.739,335.439 129.894 C 335.284 130.049,335.288 129.837,335.447 129.422 C 335.671 128.839,335.608 128.746,335.168 129.011 C 334.712 129.286,334.719 129.205,335.200 128.600 C 335.673 128.006,335.681 127.918,335.237 128.186 C 334.806 128.446,334.725 128.332,334.890 127.697 C 335.067 127.024,334.948 126.898,334.253 127.023 C 332.786 127.286,332.165 126.464,332.030 124.076 C 332.013 123.788,331.840 123.651,331.645 123.772 C 331.450 123.893,331.045 123.689,330.745 123.319 C 330.380 122.868,330.363 122.745,330.695 122.944 C 331.032 123.146,331.114 123.042,330.953 122.621 C 330.822 122.279,330.507 122.000,330.253 122.000 C 330.000 122.000,329.558 121.625,329.272 121.167 C 328.986 120.708,328.510 120.426,328.215 120.539 C 327.451 120.832,327.127 120.370,327.652 119.737 C 328.001 119.316,327.914 119.200,327.249 119.200 C 326.667 119.200,326.400 118.949,326.400 118.400 C 326.400 117.883,326.133 117.600,325.647 117.600 C 325.214 117.600,324.798 117.237,324.670 116.747 C 324.505 116.114,324.231 115.951,323.607 116.114 C 322.907 116.297,322.810 116.198,323.026 115.520 C 323.209 114.941,323.128 114.757,322.746 114.885 C 322.117 115.094,321.052 114.163,321.357 113.670 C 321.471 113.485,321.348 113.305,321.082 113.270 C 320.817 113.236,320.150 113.146,319.600 113.071 C 319.050 112.995,318.600 112.709,318.600 112.435 C 318.600 112.160,318.273 111.696,317.873 111.404 C 317.474 111.112,317.170 110.744,317.199 110.586 C 317.227 110.428,316.834 110.082,316.325 109.817 C 315.816 109.552,315.449 109.111,315.510 108.838 C 315.570 108.564,315.443 108.450,315.227 108.583 C 315.012 108.716,314.948 109.119,315.085 109.478 C 315.253 109.915,315.181 110.035,314.868 109.842 C 314.611 109.683,314.400 109.293,314.400 108.976 C 314.400 108.659,314.040 108.400,313.600 108.400 C 313.067 108.400,312.800 108.133,312.800 107.600 C 312.800 107.160,312.665 106.821,312.500 106.847 C 311.677 106.977,311.200 106.742,311.200 106.205 C 311.200 105.821,310.641 105.520,309.630 105.358 C 308.518 105.181,308.123 104.946,308.273 104.554 C 308.391 104.246,308.239 104.000,307.932 104.000 C 307.627 104.000,307.070 103.640,306.693 103.200 C 306.289 102.729,305.513 102.400,304.804 102.400 C 303.867 102.400,303.600 102.223,303.600 101.600 C 303.600 100.952,303.333 100.800,302.200 100.800 C 301.067 100.800,300.800 100.648,300.800 100.000 C 300.800 99.333,300.533 99.200,299.200 99.200 C 298.044 99.200,297.600 99.033,297.600 98.600 C 297.600 98.270,297.420 97.978,297.200 97.950 C 296.980 97.923,296.440 97.855,296.000 97.800 C 295.560 97.745,295.020 97.678,294.800 97.650 C 294.580 97.623,294.400 97.330,294.400 97.000 C 294.400 96.585,293.983 96.400,293.047 96.400 C 292.030 96.400,291.641 96.201,291.484 95.600 C 291.309 94.932,290.938 94.800,289.237 94.800 C 287.467 94.800,287.200 94.695,287.200 94.000 C 287.200 93.333,286.933 93.200,285.600 93.200 C 284.684 93.200,284.000 93.008,284.000 92.751 C 284.000 92.444,283.808 92.462,283.391 92.808 C 282.887 93.226,282.822 93.209,283.013 92.711 C 283.261 92.064,281.791 91.600,279.494 91.600 C 278.828 91.600,278.069 91.300,277.799 90.930 C 277.455 90.460,276.608 90.231,274.954 90.160 C 273.660 90.105,272.465 90.047,272.300 90.030 C 272.135 90.014,272.000 89.736,272.000 89.414 C 272.000 88.945,271.182 88.805,267.900 88.714 C 264.753 88.626,263.826 88.477,263.910 88.070 C 263.970 87.779,263.835 87.655,263.610 87.794 C 263.384 87.933,263.200 87.860,263.200 87.630 C 263.200 86.968,172.226 87.035,171.714 87.697 M336.245 131.888 C 336.117 132.016,336.325 132.377,336.706 132.690 C 337.088 133.003,337.194 133.157,336.942 133.032 C 336.690 132.907,336.376 133.085,336.245 133.428 C 336.107 133.787,335.793 133.931,335.503 133.767 C 335.121 133.551,335.124 133.616,335.517 134.038 C 335.938 134.491,336.093 134.497,336.356 134.071 C 336.567 133.731,337.247 133.605,338.303 133.710 C 339.584 133.838,339.880 133.753,339.708 133.304 C 339.581 132.973,339.169 132.820,338.720 132.937 C 338.286 133.050,337.861 132.904,337.745 132.600 C 337.507 131.981,336.589 131.545,336.245 131.888 M281.600 135.520 C 281.600 135.784,281.774 136.000,281.987 136.000 C 282.201 136.000,282.274 136.315,282.150 136.700 C 281.977 137.236,282.016 137.272,282.314 136.855 C 282.528 136.555,282.785 136.465,282.886 136.655 C 282.987 136.845,283.022 136.797,282.966 136.549 C 282.909 136.301,283.073 135.859,283.331 135.568 C 283.713 135.137,283.683 135.126,283.170 135.510 C 282.688 135.871,282.431 135.871,282.070 135.510 C 281.710 135.150,281.600 135.152,281.600 135.520 M339.613 135.900 C 339.634 136.394,342.400 138.998,342.400 138.524 C 342.400 138.283,342.152 137.991,341.849 137.874 C 341.500 137.740,341.371 137.287,341.496 136.632 C 341.667 135.735,341.556 135.600,340.647 135.600 C 340.071 135.600,339.606 135.735,339.613 135.900 M284.914 137.431 C 285.211 138.400,285.571 138.800,286.144 138.800 C 286.942 138.800,286.943 138.792,286.176 138.170 C 285.749 137.824,285.643 137.666,285.940 137.819 C 286.368 138.039,286.391 137.931,286.051 137.295 C 285.242 135.784,284.438 135.880,284.914 137.431 M290.654 141.803 C 290.440 142.361,290.819 142.966,291.457 143.086 C 291.708 143.133,291.888 142.758,291.857 142.252 C 291.798 141.296,290.968 140.986,290.654 141.803 M345.445 142.446 C 345.565 142.971,345.680 143.617,345.699 143.882 C 345.718 144.148,345.884 144.272,346.068 144.158 C 346.252 144.044,346.191 143.557,345.933 143.076 C 345.676 142.594,345.510 142.140,345.566 142.067 C 345.621 141.993,345.567 141.834,345.446 141.713 C 345.324 141.591,345.324 141.921,345.445 142.446 M301.467 151.467 C 301.084 151.849,301.138 152.400,301.557 152.400 C 301.754 152.400,302.018 152.130,302.145 151.800 C 302.379 151.190,301.953 150.981,301.467 151.467 M311.733 166.183 C 311.733 166.503,311.973 166.858,312.267 166.970 C 312.869 167.201,312.899 167.124,312.557 166.233 C 312.253 165.439,311.733 165.407,311.733 166.183 M313.338 169.417 C 312.966 170.387,313.485 170.562,313.982 169.634 C 314.291 169.056,314.297 168.800,314.002 168.800 C 313.767 168.800,313.468 169.078,313.338 169.417 " stroke="none" fill="#bf1f5c" fill-rule="evenodd"></path><path id="path1" d="M129.889 219.800 C 129.718 222.440,129.596 229.543,129.619 235.583 C 129.655 245.149,129.579 246.626,129.030 247.027 C 128.192 247.640,128.229 248.027,129.100 247.760 C 129.485 247.642,129.350 247.821,128.800 248.158 C 128.250 248.496,128.047 248.778,128.349 248.786 C 128.779 248.797,128.795 248.924,128.424 249.371 C 128.164 249.685,127.940 250.679,127.928 251.580 C 127.910 252.892,127.800 253.132,127.377 252.781 C 126.956 252.431,126.824 252.692,126.724 254.071 C 126.651 255.085,126.393 255.821,126.100 255.850 C 125.081 255.952,125.019 256.065,125.800 256.400 C 126.428 256.670,126.458 256.750,125.941 256.772 C 125.442 256.793,125.296 257.156,125.341 258.260 C 125.386 259.369,125.232 259.746,124.705 259.824 C 124.141 259.908,124.086 259.786,124.415 259.173 C 124.719 258.604,124.693 258.467,124.309 258.616 C 124.029 258.725,123.592 259.261,123.337 259.808 C 123.083 260.354,123.038 260.700,123.237 260.577 C 123.437 260.454,123.594 260.588,123.587 260.876 C 123.570 261.600,122.578 262.844,122.267 262.533 C 122.127 262.394,122.305 262.065,122.662 261.804 C 123.194 261.415,123.211 261.290,122.754 261.114 C 122.447 260.997,121.876 261.324,121.485 261.843 C 120.909 262.606,120.890 262.740,121.387 262.550 C 121.778 262.400,122.000 262.543,122.000 262.945 C 122.000 263.362,122.236 263.501,122.700 263.355 C 123.330 263.157,123.326 263.195,122.661 263.740 C 122.255 264.073,121.655 264.242,121.328 264.117 C 120.843 263.931,120.832 263.826,121.266 263.550 C 121.560 263.364,121.620 263.212,121.400 263.212 C 121.180 263.212,120.730 263.387,120.400 263.600 C 119.964 263.882,119.943 263.989,120.324 263.994 C 120.612 263.997,120.752 264.155,120.635 264.344 C 120.278 264.921,122.238 264.525,123.352 263.794 C 124.318 263.162,124.907 262.440,124.000 263.000 C 123.780 263.136,123.600 263.057,123.600 262.824 C 123.600 262.591,123.870 262.400,124.200 262.400 C 124.530 262.400,124.800 262.220,124.800 262.000 C 124.800 261.780,124.590 261.600,124.333 261.600 C 124.077 261.600,123.986 261.481,124.131 261.336 C 124.276 261.190,124.787 261.415,125.266 261.836 C 125.847 262.345,126.038 262.400,125.839 262.000 C 125.673 261.667,125.800 261.718,126.125 262.115 C 126.674 262.786,127.887 262.822,146.121 262.715 C 161.615 262.623,165.449 262.701,165.117 263.100 C 164.828 263.448,164.835 263.600,165.138 263.600 C 165.379 263.600,165.478 263.852,165.360 264.160 C 165.242 264.467,165.311 264.821,165.513 264.946 C 165.715 265.071,165.857 264.684,165.828 264.087 C 165.759 262.669,166.329 261.487,166.964 261.731 C 167.240 261.837,167.467 261.688,167.467 261.400 C 167.467 261.112,167.225 260.969,166.929 261.083 C 166.566 261.222,166.471 261.080,166.637 260.647 C 166.773 260.294,167.052 260.109,167.258 260.236 C 167.479 260.372,167.520 260.020,167.358 259.374 C 167.164 258.601,167.218 258.364,167.542 258.564 C 168.327 259.049,168.899 258.404,168.319 257.688 C 167.930 257.207,167.925 257.122,168.300 257.347 C 168.674 257.571,168.800 257.136,168.800 255.624 C 168.800 254.348,168.973 253.600,169.267 253.600 C 169.523 253.600,169.622 253.489,169.486 253.352 C 169.350 253.216,169.472 252.871,169.758 252.585 C 170.488 251.855,170.604 234.821,169.941 225.648 C 169.480 219.258,169.403 218.823,169.119 220.991 C 168.758 223.751,168.480 224.637,168.425 223.200 C 168.364 221.563,167.613 220.739,167.606 222.300 L 167.600 223.600 150.000 223.600 L 132.400 223.600 132.360 222.700 C 132.322 221.837,132.307 221.841,132.000 222.800 L 131.680 223.800 131.640 222.743 C 131.618 222.161,131.338 221.585,131.017 221.462 C 130.591 221.298,130.403 220.401,130.317 218.119 C 130.204 215.105,130.190 215.161,129.889 219.800 M319.467 217.867 C 319.320 218.013,319.201 218.598,319.202 219.167 L 319.205 220.200 319.802 219.054 C 320.551 217.619,320.367 216.967,319.467 217.867 M320.628 220.355 C 320.508 220.550,320.754 220.799,321.175 220.909 C 321.711 221.049,321.876 220.943,321.727 220.555 C 321.486 219.925,320.954 219.828,320.628 220.355 M318.800 221.624 C 318.800 222.077,318.632 222.344,318.428 222.217 C 318.223 222.091,317.955 222.149,317.832 222.348 C 317.709 222.547,318.012 222.817,318.504 222.949 C 319.763 223.286,320.082 223.257,319.817 222.828 C 319.561 222.413,320.327 221.794,320.671 222.138 C 320.930 222.397,318.846 224.400,318.318 224.400 C 318.117 224.400,318.056 224.232,318.183 224.028 C 318.309 223.823,318.214 223.533,317.972 223.383 C 317.662 223.191,317.596 223.715,317.750 225.141 C 317.890 226.443,317.806 227.272,317.516 227.452 C 317.219 227.635,317.152 227.503,317.319 227.066 C 317.460 226.700,317.401 226.400,317.187 226.400 C 316.974 226.400,316.800 226.591,316.800 226.824 C 316.800 227.057,316.650 227.155,316.467 227.041 C 316.283 226.928,316.133 227.089,316.133 227.400 C 316.133 227.711,316.328 227.856,316.567 227.724 C 316.805 227.591,316.775 227.725,316.500 228.021 C 316.225 228.318,316.000 228.985,316.000 229.504 C 316.000 230.023,315.829 230.342,315.620 230.212 C 315.198 229.951,314.331 231.330,314.431 232.105 C 314.577 233.237,314.378 233.566,313.700 233.313 C 313.065 233.075,313.056 233.120,313.600 233.802 C 313.930 234.215,313.994 234.430,313.742 234.279 C 313.490 234.128,313.177 234.283,313.046 234.623 C 312.912 234.973,312.979 235.137,313.200 235.000 C 313.416 234.867,313.491 235.019,313.368 235.340 C 313.245 235.660,312.752 236.029,312.272 236.161 C 311.610 236.342,311.529 236.483,311.934 236.744 C 312.365 237.023,312.347 237.135,311.840 237.329 C 311.496 237.461,311.311 237.823,311.429 238.132 C 311.561 238.476,311.321 238.780,310.811 238.913 C 310.352 239.033,310.004 239.282,310.036 239.466 C 310.178 240.276,309.977 241.711,309.752 241.486 C 309.397 241.131,308.400 242.226,308.400 242.971 C 308.400 243.317,308.144 243.600,307.832 243.600 C 307.519 243.600,307.145 244.142,306.999 244.803 C 306.854 245.465,306.568 245.904,306.364 245.778 C 305.962 245.529,305.181 247.209,305.471 247.700 C 305.568 247.865,305.277 248.000,304.824 248.000 C 304.371 248.000,304.000 248.193,304.000 248.429 C 304.000 248.978,302.961 250.028,302.688 249.754 C 302.573 249.640,302.507 249.869,302.540 250.264 C 302.573 250.658,302.420 250.988,302.200 250.996 C 301.471 251.025,300.783 251.649,301.034 252.055 C 301.169 252.274,300.902 252.553,300.440 252.674 C 299.978 252.794,299.600 253.142,299.600 253.447 C 299.600 253.751,299.330 254.000,299.000 254.000 C 298.670 254.000,298.400 254.274,298.400 254.610 C 298.400 254.945,297.950 255.391,297.400 255.600 C 296.280 256.026,296.005 256.513,297.100 256.131 C 297.760 255.901,297.759 255.930,297.090 256.639 C 296.700 257.053,296.085 257.393,295.725 257.396 C 295.364 257.398,294.993 257.625,294.901 257.900 C 294.789 258.233,294.978 258.316,295.467 258.146 C 296.111 257.923,296.103 257.968,295.403 258.512 C 294.822 258.963,294.527 259.006,294.319 258.669 C 294.110 258.330,293.895 258.355,293.517 258.762 C 293.092 259.219,293.098 259.261,293.552 259.003 C 293.927 258.789,294.045 258.866,293.921 259.244 C 293.820 259.550,293.346 259.858,292.869 259.928 C 292.391 259.998,292.000 260.227,292.000 260.436 C 292.000 260.645,292.422 260.739,292.938 260.646 C 293.453 260.552,294.092 260.610,294.358 260.774 C 294.623 260.938,294.034 261.063,293.049 261.051 C 292.064 261.040,291.345 260.888,291.453 260.715 C 291.560 260.542,291.436 260.400,291.177 260.400 C 290.899 260.400,290.795 260.737,290.922 261.223 C 291.091 261.869,291.024 261.952,290.611 261.609 C 290.207 261.274,290.098 261.339,290.142 261.886 C 290.180 262.348,289.963 262.561,289.530 262.489 C 289.162 262.429,288.747 262.561,288.609 262.785 C 288.456 263.033,288.638 263.089,289.079 262.928 C 289.753 262.681,289.751 262.720,289.047 263.523 C 288.305 264.368,287.332 264.358,287.855 263.511 C 288.017 263.249,287.937 263.192,287.655 263.366 C 287.398 263.525,287.314 263.868,287.470 264.128 C 287.658 264.441,287.541 264.428,287.123 264.090 C 286.605 263.670,286.452 263.688,286.257 264.195 C 285.841 265.281,288.284 264.765,289.482 263.514 C 290.069 262.901,290.831 262.414,291.175 262.432 C 291.587 262.452,291.630 262.532,291.300 262.665 C 291.025 262.776,290.800 263.016,290.800 263.198 C 290.800 263.380,291.025 263.495,291.300 263.453 C 292.112 263.330,292.800 262.788,292.794 262.276 C 292.790 261.990,292.633 262.039,292.400 262.400 C 292.187 262.730,292.009 262.805,292.006 262.567 C 291.995 261.804,292.508 261.592,293.124 262.103 C 294.012 262.840,340.000 263.047,340.452 262.316 C 340.703 261.909,340.871 261.918,341.283 262.362 C 341.669 262.777,341.674 262.846,341.300 262.635 C 340.675 262.282,340.643 262.883,341.254 263.494 C 341.742 263.982,342.800 263.262,342.800 262.441 C 342.800 262.212,343.052 262.122,343.360 262.240 C 343.667 262.358,344.038 262.262,344.184 262.026 C 344.476 261.553,343.315 261.626,342.505 262.132 C 342.165 262.344,342.084 262.246,342.247 261.821 C 342.416 261.381,342.240 261.200,341.643 261.200 C 340.808 261.200,340.551 260.782,341.068 260.266 C 341.215 260.119,341.620 260.254,341.968 260.566 C 342.825 261.335,345.026 260.954,344.360 260.152 C 344.003 259.722,344.043 259.600,344.537 259.600 C 344.886 259.600,345.365 259.240,345.600 258.800 C 345.835 258.360,345.910 258.000,345.765 258.000 C 345.620 258.000,345.703 257.758,345.948 257.463 C 346.193 257.168,346.275 256.808,346.130 256.663 C 345.985 256.518,346.257 256.400,346.733 256.400 C 347.386 256.400,347.600 256.158,347.600 255.424 C 347.600 254.887,347.808 254.319,348.062 254.162 C 348.367 253.973,348.414 254.054,348.200 254.400 C 347.994 254.733,348.033 254.827,348.307 254.657 C 348.544 254.511,348.866 253.810,349.022 253.101 C 349.178 252.392,349.544 251.629,349.835 251.406 C 350.127 251.183,350.447 250.550,350.547 250.000 C 350.846 248.351,351.259 247.589,351.704 247.864 C 351.939 248.009,352.006 247.933,351.857 247.692 C 351.537 247.175,352.375 245.131,353.092 244.680 C 353.371 244.504,353.600 243.662,353.600 242.809 C 353.600 241.679,353.781 241.224,354.268 241.129 C 354.748 241.036,354.974 240.493,355.071 239.200 C 355.164 237.958,355.453 237.230,356.003 236.851 C 356.613 236.431,356.800 235.850,356.800 234.371 C 356.800 232.948,356.984 232.337,357.500 232.048 C 358.056 231.737,358.200 231.115,358.200 229.028 C 358.200 226.971,358.330 226.394,358.800 226.372 C 359.200 226.353,359.133 226.229,358.600 226.000 C 357.808 225.660,357.808 225.656,358.620 225.628 C 359.203 225.608,359.440 225.332,359.440 224.671 C 359.440 223.911,359.254 223.763,358.420 223.856 C 357.859 223.920,357.703 223.877,358.073 223.761 C 358.444 223.646,358.721 223.215,358.690 222.804 C 358.659 222.392,358.488 222.145,358.310 222.255 C 358.133 222.365,358.102 222.642,358.244 222.870 C 358.410 223.139,358.183 223.185,357.600 223.000 C 356.987 222.805,356.787 222.855,356.974 223.157 C 357.172 223.478,352.408 223.600,339.624 223.600 C 327.486 223.600,322.000 223.468,322.000 223.176 C 322.000 222.943,321.775 222.888,321.500 223.053 C 321.114 223.285,321.117 223.210,321.511 222.723 C 321.946 222.185,321.872 222.055,321.011 221.838 C 320.455 221.699,320.000 221.408,320.000 221.192 C 320.000 220.977,319.730 220.800,319.400 220.800 C 319.061 220.800,318.800 221.158,318.800 221.624 M65.067 265.067 C 64.579 265.554,64.791 266.400,65.400 266.400 C 65.730 266.400,66.000 266.209,66.000 265.976 C 66.000 265.743,65.792 265.681,65.538 265.838 C 65.259 266.011,65.185 265.948,65.351 265.679 C 65.502 265.435,65.919 265.348,66.278 265.485 C 66.715 265.653,66.835 265.581,66.642 265.268 C 66.325 264.754,65.486 264.647,65.067 265.067 M63.269 267.239 C 62.980 267.700,62.843 268.176,62.963 268.296 C 63.083 268.416,63.294 268.220,63.432 267.860 C 63.571 267.499,63.815 267.286,63.975 267.385 C 64.136 267.484,64.267 267.303,64.267 266.982 C 64.267 266.160,63.880 266.259,63.269 267.239 M119.478 267.856 C 119.158 268.175,119.519 268.800,120.024 268.800 C 120.231 268.800,120.400 268.530,120.400 268.200 C 120.400 267.581,119.928 267.405,119.478 267.856 M61.045 269.151 C 60.405 269.857,60.407 269.917,61.071 270.172 C 61.458 270.321,61.652 270.319,61.502 270.169 C 61.351 270.018,61.408 269.558,61.628 269.147 C 62.139 268.193,61.910 268.194,61.045 269.151 M58.643 271.833 C 58.275 272.792,58.335 272.848,59.174 272.323 C 59.600 272.057,59.859 271.696,59.751 271.520 C 59.431 271.003,58.904 271.152,58.643 271.833 M265.017 272.772 C 264.721 273.251,265.474 273.725,266.007 273.396 C 266.454 273.119,266.160 272.400,265.600 272.400 C 265.406 272.400,265.144 272.568,265.017 272.772 " stroke="none" fill="#f1244c" fill-rule="evenodd"></path><path id="path2" d="M129.881 145.386 C 129.972 161.411,130.204 174.363,130.402 174.603 C 130.599 174.840,130.823 176.286,130.901 177.817 L 131.043 180.600 131.122 177.700 C 131.211 174.409,132.400 173.199,132.400 176.400 L 132.400 178.000 149.979 178.000 L 167.558 178.000 167.679 175.931 C 167.853 172.953,168.800 172.834,168.800 175.790 C 168.800 177.193,168.951 177.954,169.200 177.800 C 169.437 177.653,169.619 178.172,169.647 179.076 C 169.689 180.452,169.731 180.386,170.075 178.400 C 170.988 173.129,169.994 132.563,168.961 132.959 C 168.570 133.110,168.386 132.846,168.354 132.087 C 168.325 131.410,168.238 131.264,168.124 131.700 C 167.953 132.354,166.752 132.400,150.021 132.400 L 132.100 132.400 131.779 133.700 C 131.500 134.831,131.428 134.626,131.229 132.132 C 130.907 128.094,130.417 128.042,130.311 132.033 C 130.262 133.885,130.108 131.170,129.969 126.000 C 129.830 120.830,129.791 129.554,129.881 145.386 M332.277 125.972 C 332.470 126.712,333.523 127.410,333.891 127.043 C 334.062 126.871,332.562 125.200,332.237 125.200 C 332.148 125.200,332.166 125.548,332.277 125.972 M246.964 127.196 C 246.718 127.442,239.830 127.633,228.784 127.700 L 211.000 127.809 229.057 127.904 C 244.799 127.988,247.144 127.923,247.345 127.400 C 247.613 126.700,247.513 126.647,246.964 127.196 M260.800 128.787 C 260.800 129.001,261.052 129.078,261.360 128.960 C 261.667 128.842,262.038 128.938,262.183 129.173 C 262.328 129.408,262.651 129.600,262.900 129.600 C 263.512 129.600,261.933 128.429,261.300 128.413 C 261.025 128.406,260.800 128.574,260.800 128.787 M266.000 129.367 C 266.000 129.871,267.577 130.636,267.741 130.211 C 267.865 129.886,267.570 129.611,266.972 129.497 C 266.437 129.395,266.000 129.336,266.000 129.367 M336.000 131.519 C 335.670 131.629,335.296 131.878,335.170 132.071 C 334.959 132.391,283.967 132.519,280.209 132.209 C 278.759 132.089,278.686 132.127,279.385 132.639 C 279.808 132.947,280.378 133.200,280.653 133.200 C 280.928 133.200,281.273 133.395,281.420 133.633 C 281.580 133.891,281.388 134.033,280.944 133.986 C 279.598 133.844,279.222 133.992,279.447 134.577 C 279.615 135.015,279.907 135.063,280.660 134.777 C 282.074 134.240,282.266 134.308,281.376 135.033 C 280.733 135.557,280.718 135.628,281.287 135.450 C 281.665 135.332,282.081 135.407,282.211 135.617 C 282.341 135.828,282.227 136.000,281.957 136.000 C 281.687 136.000,281.586 136.119,281.731 136.264 C 281.876 136.410,282.401 136.189,282.898 135.775 C 283.394 135.360,283.589 135.263,283.331 135.559 C 282.825 136.141,283.067 137.330,283.622 136.986 C 283.808 136.872,284.163 137.158,284.412 137.623 C 285.029 138.775,285.318 138.362,284.817 137.044 C 284.448 136.074,284.479 136.014,285.159 136.378 C 285.570 136.598,286.015 137.062,286.148 137.410 C 286.313 137.838,286.231 137.950,285.895 137.758 C 285.623 137.602,285.850 137.919,286.400 138.464 C 286.950 139.008,287.492 139.413,287.604 139.362 C 287.879 139.240,289.427 140.385,289.300 140.617 C 289.066 141.044,289.229 141.600,289.587 141.600 C 289.801 141.600,289.876 141.285,289.755 140.900 C 289.556 140.267,289.586 140.261,290.067 140.839 C 290.360 141.190,290.916 141.431,291.302 141.374 C 291.688 141.317,291.903 141.433,291.780 141.632 C 291.493 142.097,292.158 143.300,292.636 143.181 C 292.836 143.131,293.222 143.520,293.494 144.045 C 293.766 144.570,293.991 144.768,293.994 144.484 C 293.999 144.063,294.103 144.063,294.562 144.484 C 294.871 144.768,295.096 145.180,295.062 145.400 C 295.028 145.620,295.360 145.804,295.800 145.809 C 296.319 145.816,296.561 146.051,296.489 146.479 C 296.428 146.846,296.723 147.249,297.154 147.385 C 297.580 147.521,298.228 148.088,298.594 148.647 C 298.998 149.264,299.492 149.574,299.851 149.436 C 300.176 149.311,300.336 149.381,300.206 149.590 C 299.881 150.117,301.329 151.490,301.981 151.273 C 302.273 151.176,302.417 151.255,302.303 151.448 C 301.951 152.041,302.737 153.600,303.387 153.600 C 303.939 153.600,304.178 154.070,304.047 154.900 C 304.021 155.065,304.258 155.200,304.573 155.200 C 304.888 155.200,305.259 155.556,305.397 155.992 C 305.536 156.427,305.840 156.742,306.074 156.692 C 306.308 156.641,306.686 157.140,306.913 157.800 C 307.140 158.460,307.670 159.244,308.090 159.542 C 308.510 159.839,308.757 160.334,308.639 160.642 C 308.501 161.003,308.703 161.200,309.213 161.200 C 309.819 161.200,310.000 161.473,310.000 162.386 C 310.000 163.162,310.276 163.720,310.800 164.000 C 311.240 164.235,311.600 164.692,311.600 165.014 C 311.600 165.336,311.870 165.600,312.200 165.600 C 312.530 165.600,312.779 165.735,312.753 165.900 C 312.603 166.847,312.852 168.015,313.163 167.823 C 313.362 167.700,313.430 167.962,313.314 168.405 C 313.152 169.028,313.253 169.155,313.756 168.961 C 314.226 168.781,314.344 168.881,314.177 169.315 C 314.050 169.647,314.121 170.027,314.335 170.160 C 314.550 170.292,314.631 170.761,314.516 171.200 C 314.353 171.823,314.504 172.000,315.196 172.000 C 315.795 172.000,316.015 172.183,315.870 172.561 C 315.752 172.869,315.778 173.244,315.928 173.394 C 316.077 173.544,316.223 173.832,316.250 174.033 C 316.372 174.926,316.436 174.966,316.837 174.400 C 317.214 173.867,317.241 173.867,317.080 174.400 C 316.981 174.730,316.698 174.955,316.450 174.900 C 315.765 174.748,315.913 175.992,316.612 176.260 C 316.969 176.397,317.543 176.126,317.991 175.611 L 318.758 174.726 318.653 175.863 C 318.595 176.488,318.335 176.955,318.074 176.900 C 317.813 176.845,317.600 176.969,317.600 177.175 C 317.600 177.381,317.948 177.524,318.372 177.492 C 318.797 177.460,319.068 177.310,318.975 177.159 C 318.881 177.008,319.088 176.775,319.435 176.642 C 320.350 176.291,320.400 176.320,320.400 177.200 C 320.400 177.988,320.667 178.000,337.800 178.000 L 355.200 178.000 355.200 176.813 C 355.200 175.856,355.336 175.672,355.900 175.866 C 356.469 176.062,356.450 175.987,355.800 175.467 C 355.018 174.840,355.024 174.825,356.100 174.813 C 356.816 174.804,357.200 174.586,357.200 174.187 C 357.200 173.851,357.470 173.471,357.800 173.345 C 358.526 173.066,358.597 171.746,357.900 171.465 C 357.521 171.312,357.518 171.256,357.887 171.232 C 358.514 171.191,358.073 170.000,357.432 170.000 C 357.135 170.000,356.915 169.268,356.861 168.100 C 356.808 166.965,356.456 165.763,355.986 165.116 C 355.554 164.520,355.200 163.474,355.200 162.793 C 355.200 162.111,355.065 161.635,354.900 161.734 C 354.608 161.911,353.575 161.022,353.592 160.608 C 353.690 158.177,353.531 157.200,353.035 157.200 C 352.688 157.200,352.366 156.584,352.200 155.600 C 352.034 154.616,351.712 154.000,351.365 154.000 C 351.000 154.000,350.800 153.562,350.800 152.763 C 350.800 151.862,350.583 151.468,350.000 151.316 C 349.259 151.122,349.088 150.632,349.092 148.718 C 349.092 148.343,348.982 148.049,348.846 148.065 C 347.936 148.174,347.600 147.864,347.600 146.915 C 347.600 146.227,347.198 145.485,346.500 144.886 C 345.895 144.367,345.670 144.081,346.000 144.251 C 346.330 144.421,346.105 143.906,345.500 143.107 C 344.895 142.307,344.400 141.371,344.400 141.027 C 344.400 140.682,344.133 140.400,343.808 140.400 C 343.482 140.400,343.106 139.905,342.973 139.300 C 342.839 138.695,342.691 138.036,342.643 137.835 C 342.596 137.634,342.206 137.421,341.778 137.360 C 341.011 137.252,341.011 137.259,341.771 137.821 C 342.195 138.135,342.455 138.479,342.348 138.585 C 341.955 138.978,339.602 136.060,339.831 135.463 C 340.007 135.004,339.839 134.902,339.132 135.040 L 338.200 135.223 339.158 134.803 C 340.352 134.280,340.076 133.976,338.174 133.720 C 337.189 133.587,336.586 133.699,336.365 134.057 C 336.089 134.503,335.946 134.500,335.517 134.038 C 335.124 133.616,335.121 133.551,335.503 133.767 C 335.793 133.931,336.107 133.787,336.245 133.428 C 336.376 133.085,336.690 132.907,336.942 133.032 C 337.194 133.157,337.074 132.993,336.676 132.668 C 336.251 132.321,336.117 131.975,336.352 131.830 C 336.572 131.694,337.145 131.991,337.626 132.491 C 338.460 133.360,338.479 133.362,338.060 132.547 C 337.560 131.573,336.868 131.228,336.000 131.519 M277.489 132.644 C 277.330 132.803,277.203 133.128,277.206 133.367 C 277.209 133.605,277.387 133.530,277.600 133.200 C 277.931 132.687,277.989 132.702,277.994 133.300 C 278.001 134.111,278.621 134.229,279.041 133.500 C 279.199 133.225,279.182 133.132,279.004 133.294 C 278.825 133.455,278.476 133.310,278.229 132.971 C 277.981 132.633,277.648 132.485,277.489 132.644 M357.800 174.000 C 357.664 174.220,357.671 174.592,357.816 174.827 C 357.961 175.061,357.782 175.471,357.418 175.737 C 356.994 176.047,356.856 176.481,357.034 176.944 C 357.253 177.514,357.384 177.554,357.656 177.134 C 357.940 176.694,358.065 176.700,358.368 177.172 C 358.908 178.010,360.006 178.084,359.697 177.261 C 359.561 176.897,359.214 176.420,358.926 176.200 C 358.638 175.980,358.362 175.305,358.314 174.700 C 358.216 173.487,358.163 173.413,357.800 174.000 M320.400 175.557 C 320.400 175.754,320.160 176.007,319.867 176.119 C 319.573 176.232,319.333 176.071,319.333 175.762 C 319.333 175.453,319.573 175.200,319.867 175.200 C 320.160 175.200,320.400 175.361,320.400 175.557 M318.223 179.637 C 318.346 179.837,318.257 180.000,318.024 180.000 C 317.791 180.000,317.600 180.180,317.600 180.400 C 317.600 180.977,318.365 180.892,319.014 180.243 C 319.490 179.767,319.457 179.656,318.785 179.480 C 318.353 179.367,318.100 179.438,318.223 179.637 M359.775 184.900 C 359.990 185.934,360.499 186.800,360.892 186.800 C 361.126 186.800,361.087 186.546,360.800 186.200 C 360.403 185.721,360.403 185.600,360.800 185.600 C 361.197 185.600,361.197 185.479,360.800 185.000 C 360.195 184.271,359.632 184.216,359.775 184.900 M319.200 186.086 C 319.200 186.511,319.483 186.787,319.900 186.768 C 320.352 186.748,320.415 186.663,320.079 186.528 C 319.678 186.368,319.708 186.210,320.206 185.845 C 320.782 185.424,320.762 185.371,320.027 185.371 C 319.500 185.371,319.200 185.630,319.200 186.086 " stroke="none" fill="#cf2455" fill-rule="evenodd"></path><path id="path3" d="M129.766 186.000 C 129.754 205.250,129.859 219.650,130.000 218.000 L 130.256 215.000 130.328 218.113 C 130.382 220.462,130.547 221.282,131.000 221.455 C 131.330 221.582,131.618 222.161,131.640 222.743 L 131.680 223.800 132.000 222.800 C 132.307 221.841,132.322 221.837,132.360 222.700 L 132.400 223.600 150.000 223.600 L 167.600 223.600 167.606 222.300 C 167.613 220.739,168.364 221.563,168.425 223.200 C 168.479 224.627,168.755 223.761,169.128 220.991 C 169.440 218.678,169.464 218.777,169.863 224.000 C 170.198 228.386,170.277 224.516,170.281 203.400 C 170.284 189.100,170.158 178.120,170.000 179.000 L 169.714 180.600 169.657 179.076 C 169.623 178.174,169.437 177.654,169.200 177.800 C 168.951 177.954,168.800 177.193,168.800 175.790 C 168.800 172.834,167.853 172.953,167.679 175.931 L 167.558 178.000 149.979 178.000 L 132.400 178.000 132.400 176.400 C 132.400 173.198,131.210 174.409,131.123 177.700 L 131.046 180.600 130.917 178.000 C 130.846 176.570,130.609 175.040,130.391 174.600 C 130.165 174.144,129.950 168.899,129.891 162.400 C 129.834 156.130,129.777 166.750,129.766 186.000 M357.316 174.000 C 357.175 174.540,356.764 174.804,356.053 174.813 C 355.021 174.825,355.016 174.838,355.800 175.467 C 356.450 175.987,356.469 176.062,355.900 175.866 C 355.336 175.672,355.200 175.856,355.200 176.813 L 355.200 178.000 337.800 178.000 L 320.400 178.000 320.400 177.157 C 320.400 176.553,320.221 176.383,319.767 176.557 C 319.419 176.691,319.049 176.800,318.944 176.800 C 318.839 176.800,318.867 176.984,319.006 177.210 C 319.145 177.435,319.111 177.594,318.930 177.563 C 318.052 177.410,317.763 177.697,317.679 178.800 C 317.628 179.460,317.781 180.000,318.017 180.000 C 318.254 180.000,318.346 179.837,318.223 179.637 C 318.100 179.438,318.400 179.379,318.889 179.507 C 319.379 179.635,319.566 179.811,319.306 179.898 C 318.976 180.008,318.899 180.808,319.052 182.524 C 319.308 185.405,319.454 185.733,320.340 185.426 C 320.882 185.239,320.871 185.298,320.279 185.759 C 319.882 186.067,319.737 186.382,319.956 186.460 C 320.179 186.538,320.434 188.810,320.535 191.600 C 320.634 194.350,320.757 196.600,320.807 196.600 C 320.857 196.600,320.927 197.446,320.963 198.481 C 320.999 199.515,321.155 200.489,321.311 200.644 C 321.466 200.799,321.393 201.168,321.148 201.463 C 320.815 201.863,320.829 202.000,321.200 202.000 C 321.597 202.000,321.597 202.121,321.200 202.600 C 320.799 203.084,320.808 203.201,321.251 203.206 C 321.618 203.210,321.654 203.310,321.361 203.506 C 321.119 203.668,320.903 204.070,320.880 204.400 C 320.596 208.574,320.628 210.401,320.985 210.406 C 321.230 210.410,321.211 210.533,320.937 210.707 C 320.648 210.891,320.498 212.069,320.537 213.861 C 320.595 216.471,320.539 216.688,319.900 216.346 C 319.320 216.036,319.200 216.143,319.200 216.973 C 319.200 217.736,319.356 217.915,319.855 217.724 C 320.320 217.545,320.436 217.636,320.255 218.036 C 320.115 218.346,319.889 218.915,319.754 219.300 C 319.618 219.685,319.348 220.000,319.153 220.000 C 318.959 220.000,318.800 220.180,318.800 220.400 C 318.800 220.620,319.070 220.800,319.400 220.800 C 319.730 220.800,320.000 220.977,320.000 221.192 C 320.000 221.408,320.455 221.699,321.011 221.838 C 321.872 222.055,321.946 222.185,321.511 222.723 C 321.117 223.210,321.114 223.285,321.500 223.053 C 321.775 222.888,322.000 222.943,322.000 223.176 C 322.000 223.468,327.486 223.600,339.624 223.600 C 352.408 223.600,357.172 223.478,356.974 223.157 C 356.787 222.855,356.987 222.805,357.600 223.000 C 358.183 223.185,358.410 223.139,358.244 222.870 C 358.102 222.642,358.133 222.365,358.310 222.255 C 358.488 222.145,358.660 222.403,358.692 222.828 C 358.727 223.295,358.484 223.616,358.075 223.640 C 357.670 223.664,357.801 223.799,358.400 223.977 C 359.759 224.381,360.037 224.150,359.595 222.986 C 359.388 222.444,359.371 222.000,359.555 222.000 C 359.739 222.000,359.870 220.845,359.845 219.433 C 359.820 218.021,359.890 216.873,360.000 216.880 C 361.063 216.956,361.112 216.333,361.159 202.009 C 361.202 188.544,361.145 187.145,360.517 186.412 C 360.020 185.831,359.820 184.852,359.799 182.903 C 359.783 181.416,359.641 179.990,359.483 179.734 C 359.324 179.478,359.386 179.205,359.620 179.127 C 359.854 179.049,359.927 178.674,359.781 178.295 C 359.635 177.915,359.366 177.697,359.183 177.811 C 358.999 177.924,358.661 177.698,358.432 177.308 C 358.098 176.742,357.944 176.707,357.663 177.134 C 357.385 177.555,357.253 177.516,357.034 176.944 C 356.859 176.488,356.989 176.051,357.385 175.761 C 357.779 175.474,357.911 175.034,357.739 174.585 C 357.571 174.148,357.621 173.965,357.865 174.117 C 358.086 174.253,358.267 174.103,358.267 173.782 C 358.267 172.916,357.557 173.078,357.316 174.000 M318.065 175.436 C 317.503 176.072,317.739 177.408,318.347 177.033 C 318.613 176.868,318.904 174.738,318.650 174.815 C 318.623 174.824,318.359 175.103,318.065 175.436 M319.333 175.762 C 319.333 176.071,319.573 176.232,319.867 176.119 C 320.160 176.007,320.400 175.754,320.400 175.557 C 320.400 175.361,320.160 175.200,319.867 175.200 C 319.573 175.200,319.333 175.453,319.333 175.762 M321.727 220.555 C 321.876 220.943,321.711 221.049,321.175 220.909 C 320.754 220.799,320.508 220.550,320.628 220.355 C 320.954 219.828,321.486 219.925,321.727 220.555 M319.953 222.300 C 319.927 222.465,319.932 222.750,319.964 222.934 C 319.996 223.118,319.436 223.140,318.719 222.982 C 317.600 222.736,317.485 222.779,317.904 223.285 C 318.173 223.609,318.275 223.992,318.130 224.137 C 317.637 224.629,318.425 224.402,319.380 223.776 C 320.399 223.108,321.028 222.000,320.387 222.000 C 320.174 222.000,319.979 222.135,319.953 222.300 M317.600 225.624 C 317.600 225.857,317.375 225.920,317.100 225.765 C 316.715 225.548,316.708 225.599,317.069 225.990 C 317.327 226.269,317.431 226.775,317.301 227.114 C 317.158 227.485,317.231 227.628,317.482 227.473 C 317.862 227.238,318.102 225.200,317.750 225.200 C 317.668 225.200,317.600 225.391,317.600 225.624 M352.900 244.688 C 352.625 244.786,352.400 245.160,352.400 245.519 C 352.400 246.113,352.461 246.111,353.076 245.495 C 353.799 244.772,353.717 244.396,352.900 244.688 " stroke="none" fill="#df2450" fill-rule="evenodd"></path><path id="path4" d="M320.400 201.243 C 320.400 202.630,320.723 202.641,320.988 201.263 C 321.078 200.797,320.982 200.312,320.775 200.185 C 320.569 200.057,320.400 200.533,320.400 201.243 M319.400 215.200 C 319.074 215.728,319.552 216.477,320.028 216.183 C 320.513 215.883,320.510 214.800,320.024 214.800 C 319.817 214.800,319.536 214.980,319.400 215.200 M317.867 221.067 C 317.406 221.527,317.575 222.000,318.200 222.000 C 318.530 222.000,318.800 221.730,318.800 221.400 C 318.800 220.775,318.327 220.606,317.867 221.067 M358.400 227.049 C 358.400 227.580,358.509 227.608,359.000 227.200 C 359.330 226.926,359.600 226.634,359.600 226.551 C 359.600 226.468,359.330 226.400,359.000 226.400 C 358.670 226.400,358.400 226.692,358.400 227.049 M314.406 230.500 C 314.411 231.228,314.486 231.285,314.800 230.800 C 315.301 230.024,315.301 229.600,314.800 229.600 C 314.580 229.600,314.403 230.005,314.406 230.500 M356.400 236.733 C 356.400 236.990,356.130 237.200,355.800 237.200 C 355.470 237.200,355.200 237.470,355.200 237.800 C 355.200 238.130,355.374 238.400,355.586 238.400 C 356.071 238.400,356.946 236.812,356.632 236.499 C 356.505 236.371,356.400 236.477,356.400 236.733 M308.509 241.186 C 308.564 241.915,308.620 241.925,309.284 241.324 C 310.187 240.507,310.180 240.400,309.225 240.400 C 308.701 240.400,308.469 240.655,308.509 241.186 M305.327 245.500 C 305.190 245.885,304.808 246.515,304.477 246.900 C 304.147 247.285,303.949 247.614,304.038 247.631 C 304.127 247.647,304.516 247.722,304.902 247.795 C 305.288 247.869,305.497 247.758,305.367 247.547 C 305.237 247.337,305.417 246.729,305.766 246.196 C 306.508 245.063,306.550 244.800,305.987 244.800 C 305.761 244.800,305.463 245.115,305.327 245.500 M351.841 246.636 C 351.707 246.986,351.716 247.464,351.861 247.698 C 352.016 247.949,351.934 248.006,351.662 247.838 C 351.408 247.681,351.200 247.743,351.200 247.976 C 351.200 248.209,351.470 248.400,351.800 248.400 C 352.200 248.400,352.400 248.000,352.400 247.200 C 352.400 245.867,352.210 245.675,351.841 246.636 M128.000 247.176 C 128.000 248.165,128.477 248.462,129.219 247.936 C 129.693 247.601,129.671 247.566,129.100 247.750 C 128.715 247.874,128.400 247.865,128.400 247.732 C 128.400 247.598,128.715 247.249,129.100 246.957 C 129.748 246.465,129.733 246.425,128.900 246.413 C 128.271 246.404,128.000 246.634,128.000 247.176 M126.663 251.683 C 126.536 252.168,126.515 252.648,126.616 252.749 C 126.717 252.850,126.800 252.689,126.800 252.390 C 126.800 252.033,127.013 252.113,127.422 252.624 C 128.023 253.374,128.030 253.370,127.622 252.526 C 127.093 251.431,127.086 251.083,127.600 251.400 C 127.820 251.536,128.000 251.457,128.000 251.224 C 128.000 250.421,126.893 250.801,126.663 251.683 M350.000 251.624 C 350.000 251.857,349.820 251.936,349.600 251.800 C 349.380 251.664,349.200 251.743,349.200 251.976 C 349.200 252.467,349.307 252.487,350.167 252.157 C 350.865 251.889,351.033 251.200,350.400 251.200 C 350.180 251.200,350.000 251.391,350.000 251.624 M169.379 253.166 C 169.503 253.367,169.403 253.599,169.157 253.681 C 168.910 253.763,168.774 254.134,168.854 254.505 C 169.039 255.359,169.800 254.894,170.173 253.700 C 170.385 253.020,170.295 252.800,169.803 252.800 C 169.446 252.800,169.255 252.965,169.379 253.166 M296.600 256.400 C 296.464 256.620,296.003 256.800,295.576 256.800 C 295.149 256.800,294.800 256.950,294.800 257.133 C 294.800 257.701,296.389 257.383,297.098 256.673 C 297.485 256.286,297.575 256.000,297.309 256.000 C 297.055 256.000,296.736 256.180,296.600 256.400 M124.500 256.888 C 123.479 257.381,123.206 259.037,124.209 258.652 C 124.699 258.464,124.739 258.566,124.415 259.173 C 124.086 259.786,124.141 259.908,124.705 259.824 C 125.230 259.746,125.386 259.369,125.342 258.282 C 125.300 257.250,125.470 256.793,125.942 256.668 C 126.443 256.535,126.457 256.488,126.000 256.473 C 125.670 256.463,124.995 256.649,124.500 256.888 M346.130 256.663 C 346.275 256.808,346.178 257.185,345.916 257.502 C 345.520 257.979,345.605 258.053,346.415 257.938 C 347.705 257.756,348.011 256.400,346.763 256.400 C 346.270 256.400,345.985 256.518,346.130 256.663 M168.197 257.983 C 168.328 258.663,168.220 258.817,167.740 258.632 C 167.233 258.438,167.161 258.592,167.372 259.429 C 167.524 260.037,167.477 260.371,167.258 260.236 C 167.052 260.109,166.791 260.247,166.677 260.542 C 166.535 260.913,166.832 261.091,167.632 261.113 C 168.775 261.146,169.275 258.341,168.299 257.366 C 168.149 257.215,168.102 257.493,168.197 257.983 M292.892 258.686 C 292.612 258.789,292.132 259.358,291.825 259.951 L 291.267 261.030 293.054 261.051 C 294.037 261.063,294.623 260.938,294.358 260.774 C 294.092 260.610,293.453 260.552,292.938 260.646 C 292.422 260.739,292.000 260.632,292.000 260.408 C 292.000 260.184,292.349 260.000,292.776 260.000 C 293.668 260.000,294.256 259.281,293.745 258.815 C 293.555 258.642,293.171 258.584,292.892 258.686 M345.600 258.813 C 345.600 259.040,345.209 259.370,344.732 259.547 C 344.254 259.724,344.029 259.967,344.232 260.087 C 344.837 260.447,346.400 259.673,346.400 259.013 C 346.400 258.676,346.220 258.400,346.000 258.400 C 345.780 258.400,345.600 258.586,345.600 258.813 M122.000 260.380 C 122.000 260.589,122.299 260.927,122.664 261.132 C 123.411 261.550,122.426 262.288,120.674 262.623 C 120.193 262.715,119.578 263.094,119.306 263.464 C 118.690 264.302,118.742 267.279,119.365 266.907 C 119.604 266.764,119.547 266.959,119.237 267.340 C 118.792 267.888,118.777 268.135,119.166 268.517 C 119.550 268.895,119.629 268.881,119.529 268.450 C 119.458 268.147,119.625 267.818,119.900 267.717 C 120.240 267.592,120.400 267.984,120.400 268.940 C 120.400 270.200,120.498 270.329,121.344 270.176 C 122.177 270.025,122.264 270.129,122.086 271.060 C 121.906 272.004,121.989 272.095,122.874 271.926 C 123.731 271.762,123.839 271.861,123.685 272.669 C 123.544 273.407,123.683 273.600,124.353 273.600 C 124.854 273.600,125.200 273.855,125.200 274.224 C 125.200 274.567,125.368 274.744,125.572 274.617 C 125.777 274.491,126.060 274.573,126.200 274.800 C 126.340 275.027,126.593 275.128,126.761 275.024 C 126.929 274.920,127.067 275.089,127.067 275.400 C 127.067 275.711,126.917 275.872,126.733 275.759 C 126.550 275.645,126.400 275.764,126.400 276.023 C 126.400 276.300,126.783 276.420,127.331 276.315 C 128.126 276.163,128.237 276.274,128.085 277.069 C 127.942 277.813,128.081 278.000,128.777 278.000 C 129.333 278.000,129.544 277.833,129.362 277.538 C 129.184 277.251,129.252 277.185,129.541 277.364 C 129.797 277.522,129.927 278.090,129.830 278.626 C 129.692 279.383,129.825 279.600,130.426 279.600 C 130.852 279.600,131.200 279.804,131.200 280.054 C 131.200 280.588,133.070 282.400,133.621 282.400 C 133.829 282.400,134.000 282.760,134.000 283.200 C 134.000 283.733,134.267 284.000,134.800 284.000 C 135.333 284.000,135.600 284.267,135.600 284.800 C 135.600 285.333,135.867 285.600,136.400 285.600 C 136.933 285.600,137.200 285.867,137.200 286.400 C 137.200 286.933,137.467 287.200,138.000 287.200 C 138.440 287.200,138.800 287.400,138.800 287.644 C 138.800 288.258,140.490 289.985,141.100 289.993 C 141.375 289.997,141.600 290.360,141.600 290.800 C 141.600 291.333,141.867 291.600,142.400 291.600 C 142.933 291.600,143.200 291.867,143.200 292.400 C 143.200 292.917,143.467 293.200,143.953 293.200 C 144.370 293.200,144.800 293.557,144.916 294.000 C 145.217 295.152,148.775 295.183,149.074 294.037 C 149.184 293.617,149.617 293.184,150.037 293.074 C 150.457 292.965,150.800 292.588,150.800 292.237 C 150.800 291.887,151.058 291.600,151.373 291.600 C 151.688 291.600,152.055 291.257,152.188 290.837 C 152.321 290.417,152.694 289.973,153.015 289.850 C 153.350 289.721,153.600 289.107,153.600 288.413 C 153.600 287.467,153.776 287.200,154.400 287.200 C 154.933 287.200,155.200 286.933,155.200 286.400 C 155.200 285.867,155.467 285.600,156.000 285.600 C 156.517 285.600,156.800 285.333,156.800 284.847 C 156.800 284.430,157.157 284.000,157.600 283.884 C 158.174 283.734,158.400 283.338,158.400 282.484 C 158.400 281.630,158.626 281.234,159.200 281.084 C 159.661 280.963,160.000 280.538,160.000 280.080 C 160.000 279.643,160.270 279.182,160.600 279.055 C 160.951 278.921,161.200 278.321,161.200 277.613 C 161.200 276.653,161.373 276.400,162.029 276.400 C 162.643 276.400,162.838 276.167,162.784 275.500 C 162.659 273.951,162.776 273.662,163.639 273.388 C 164.322 273.171,164.449 272.868,164.319 271.761 C 164.193 270.676,164.301 270.400,164.853 270.400 C 165.673 270.400,166.166 269.115,165.842 267.824 C 165.680 267.180,165.909 266.583,166.606 265.832 C 167.152 265.242,167.600 264.318,167.600 263.779 C 167.600 262.750,167.009 262.447,166.665 263.300 C 166.554 263.575,166.449 263.401,166.432 262.913 C 166.411 262.330,166.583 262.095,166.933 262.230 C 167.231 262.344,167.467 262.171,167.467 261.839 C 167.467 261.385,167.292 261.337,166.733 261.636 C 165.981 262.038,165.922 262.214,165.903 264.090 C 165.896 264.690,165.724 265.076,165.518 264.950 C 165.313 264.823,165.242 264.467,165.360 264.160 C 165.478 263.852,165.379 263.600,165.138 263.600 C 164.835 263.600,164.828 263.448,165.117 263.100 C 165.449 262.701,161.615 262.623,146.121 262.715 C 127.887 262.822,126.674 262.786,126.125 262.115 C 125.800 261.718,125.673 261.667,125.839 262.000 C 126.038 262.400,125.847 262.345,125.266 261.836 C 124.787 261.415,124.276 261.190,124.131 261.336 C 123.986 261.481,124.077 261.600,124.333 261.600 C 124.590 261.600,124.800 261.780,124.800 262.000 C 124.800 262.220,124.530 262.400,124.200 262.400 C 123.870 262.400,123.600 262.591,123.600 262.824 C 123.600 263.057,123.780 263.136,124.000 263.000 C 124.907 262.440,124.318 263.162,123.352 263.794 C 122.272 264.502,120.274 264.928,120.614 264.378 C 120.719 264.208,120.579 263.977,120.302 263.866 C 119.913 263.709,119.918 263.656,120.324 263.632 C 120.612 263.614,120.737 263.422,120.603 263.205 C 120.460 262.973,120.630 262.914,121.013 263.060 C 121.471 263.236,121.527 263.398,121.200 263.600 C 120.866 263.807,120.902 263.954,121.328 264.117 C 121.655 264.242,122.255 264.073,122.661 263.740 C 123.326 263.195,123.330 263.157,122.700 263.355 C 122.243 263.499,122.000 263.363,122.000 262.964 C 122.000 262.628,122.153 262.447,122.340 262.563 C 122.806 262.851,123.760 260.982,123.424 260.438 C 123.091 259.901,122.000 259.856,122.000 260.380 M341.068 260.266 C 340.551 260.782,340.808 261.200,341.643 261.200 C 342.240 261.200,342.416 261.381,342.247 261.821 C 342.111 262.177,342.178 262.337,342.405 262.197 C 342.998 261.830,342.880 262.777,342.254 263.403 C 341.847 263.810,341.593 263.833,341.254 263.494 C 340.643 262.883,340.675 262.282,341.300 262.635 C 341.674 262.846,341.669 262.777,341.283 262.362 C 340.871 261.918,340.703 261.909,340.452 262.316 C 340.000 263.047,294.012 262.840,293.124 262.103 C 292.508 261.592,291.995 261.804,292.006 262.567 C 292.009 262.805,292.187 262.730,292.400 262.400 C 292.633 262.039,292.790 261.990,292.794 262.276 C 292.800 262.788,292.112 263.330,291.300 263.453 C 291.025 263.495,290.800 263.380,290.800 263.198 C 290.800 263.016,291.025 262.776,291.300 262.665 C 291.630 262.532,291.587 262.452,291.175 262.432 C 290.831 262.414,290.069 262.901,289.482 263.514 C 288.839 264.186,287.920 264.666,287.171 264.723 C 285.736 264.833,285.717 264.070,287.141 263.544 C 287.674 263.346,287.948 263.360,287.814 263.578 C 287.365 264.304,288.308 264.365,288.953 263.652 C 289.579 262.960,289.545 262.920,288.307 262.876 C 286.532 262.813,285.600 263.141,285.600 263.827 C 285.600 264.142,285.259 264.400,284.843 264.400 C 284.122 264.400,283.382 265.403,283.553 266.149 C 283.597 266.341,283.377 266.400,283.065 266.280 C 282.753 266.161,282.269 266.273,281.990 266.531 C 281.594 266.897,281.553 266.876,281.803 266.438 C 282.025 266.050,281.973 265.970,281.635 266.179 C 281.366 266.345,281.242 266.733,281.360 267.040 C 281.571 267.590,280.525 267.828,278.647 267.659 C 278.007 267.601,277.972 267.685,278.415 268.218 C 278.701 268.563,278.770 268.814,278.568 268.775 C 278.365 268.737,278.020 268.747,277.800 268.797 C 277.440 268.880,276.897 268.940,274.727 269.139 C 274.357 269.172,273.946 269.539,273.814 269.954 C 273.622 270.560,273.295 270.671,272.151 270.517 C 271.026 270.365,270.605 270.500,270.141 271.163 C 269.819 271.623,269.151 272.000,268.657 272.000 C 268.164 272.000,267.544 272.216,267.280 272.480 C 266.907 272.853,266.800 272.853,266.800 272.480 C 266.800 272.213,266.267 272.000,265.600 272.000 C 264.667 272.000,264.400 272.178,264.400 272.800 C 264.400 273.673,264.159 273.709,258.541 273.668 C 256.037 273.650,255.656 273.744,255.478 274.423 C 255.280 275.181,254.702 275.200,231.837 275.200 C 217.608 275.200,208.400 275.347,208.400 275.573 C 208.400 275.778,208.040 276.060,207.600 276.200 C 207.160 276.340,206.800 276.712,206.800 277.027 C 206.800 277.342,206.609 277.600,206.376 277.600 C 206.143 277.600,206.063 277.778,206.197 277.995 C 206.337 278.222,206.177 278.289,205.821 278.153 C 205.381 277.984,205.200 278.160,205.200 278.757 C 205.200 279.222,204.943 279.600,204.627 279.600 C 204.312 279.600,203.940 279.960,203.800 280.400 C 203.660 280.840,203.288 281.200,202.973 281.200 C 202.658 281.200,202.400 281.540,202.400 281.956 C 202.400 282.426,202.139 282.690,201.710 282.656 C 201.330 282.625,201.015 282.870,201.010 283.200 C 201.004 283.530,200.577 283.860,200.060 283.933 C 199.326 284.037,199.157 284.264,199.291 284.965 C 199.436 285.722,199.317 285.835,198.531 285.685 C 197.793 285.544,197.600 285.683,197.600 286.353 C 197.600 286.839,197.344 287.200,197.000 287.200 C 196.667 287.200,196.400 287.556,196.400 288.000 C 196.400 288.452,196.133 288.800,195.787 288.800 C 195.451 288.800,195.071 289.070,194.945 289.400 C 194.818 289.730,194.374 290.000,193.957 290.000 C 193.424 290.000,193.200 290.285,193.200 290.963 C 193.200 291.752,193.044 291.884,192.337 291.699 C 191.609 291.509,191.509 291.609,191.699 292.337 C 191.884 293.044,191.752 293.200,190.963 293.200 C 190.267 293.200,190.000 293.422,190.000 294.000 C 190.000 294.444,189.733 294.800,189.400 294.800 C 189.067 294.800,188.800 295.156,188.800 295.600 C 188.800 296.133,188.533 296.400,188.000 296.400 C 187.556 296.400,187.200 296.667,187.200 297.000 C 187.200 297.541,186.725 297.778,185.900 297.647 C 185.735 297.621,185.600 297.960,185.600 298.400 C 185.600 298.933,185.333 299.200,184.800 299.200 C 184.283 299.200,184.000 299.467,184.000 299.953 C 184.000 300.386,183.637 300.802,183.148 300.929 C 182.579 301.078,182.376 301.359,182.535 301.776 C 182.702 302.211,182.536 302.400,181.987 302.400 C 181.554 302.400,181.200 302.658,181.200 302.973 C 181.200 303.288,180.840 303.660,180.400 303.800 C 179.960 303.940,179.600 304.312,179.600 304.627 C 179.600 304.942,179.240 305.200,178.800 305.200 C 178.267 305.200,178.000 305.467,178.000 306.000 C 178.000 306.533,177.733 306.800,177.200 306.800 C 176.760 306.800,176.421 306.935,176.447 307.100 C 176.578 307.925,176.341 308.400,175.800 308.400 C 175.467 308.400,175.200 308.756,175.200 309.200 C 175.200 309.733,174.933 310.000,174.400 310.000 C 173.882 310.000,173.600 310.267,173.600 310.756 C 173.600 311.230,173.339 311.490,172.900 311.456 C 172.457 311.420,172.153 311.730,172.072 312.300 C 172.002 312.795,171.706 313.200,171.415 313.200 C 170.068 313.200,170.335 315.382,171.728 315.755 C 174.586 316.522,255.609 315.991,256.400 315.200 C 257.124 314.476,257.733 314.400,262.837 314.400 C 268.138 314.400,268.487 314.352,268.684 313.600 C 268.869 312.894,269.230 312.800,271.758 312.800 C 274.165 312.800,274.716 312.672,275.200 312.000 C 275.672 311.345,276.235 311.200,278.301 311.200 C 280.176 311.200,280.884 311.046,281.055 310.600 C 281.204 310.212,281.824 310.000,282.810 310.000 C 284.723 310.000,285.600 309.672,285.600 308.957 C 285.600 308.596,286.058 308.398,286.900 308.395 C 288.800 308.387,290.000 307.984,290.000 307.353 C 290.000 306.974,290.504 306.800,291.600 306.800 C 292.933 306.800,293.200 306.667,293.200 306.000 C 293.200 305.348,293.467 305.200,294.637 305.200 C 295.738 305.200,296.124 305.013,296.284 304.400 C 296.441 303.799,296.830 303.600,297.847 303.600 C 298.758 303.600,299.200 303.412,299.200 303.024 C 299.200 302.647,299.719 302.405,300.700 302.324 C 301.903 302.225,302.196 302.041,302.179 301.397 C 302.160 300.705,302.369 300.614,303.679 300.739 C 305.005 300.865,305.200 300.776,305.200 300.042 C 305.200 299.375,305.447 299.200,306.386 299.200 C 307.162 299.200,307.720 298.924,308.000 298.400 C 308.235 297.960,308.782 297.600,309.214 297.600 C 309.646 297.600,310.000 297.330,310.000 297.000 C 310.000 296.670,310.345 296.400,310.767 296.400 C 311.959 296.400,312.800 295.969,312.800 295.357 C 312.800 295.051,313.160 294.800,313.600 294.800 C 314.133 294.800,314.400 294.533,314.400 294.000 C 314.400 293.489,314.667 293.200,315.138 293.200 C 315.544 293.200,316.202 292.840,316.600 292.400 C 316.998 291.960,317.656 291.600,318.062 291.600 C 318.533 291.600,318.800 291.311,318.800 290.800 C 318.800 290.267,319.067 290.000,319.600 290.000 C 320.044 290.000,320.400 289.733,320.400 289.400 C 320.400 289.070,320.687 288.800,321.037 288.800 C 321.388 288.800,321.769 288.440,321.884 288.000 C 322.000 287.557,322.430 287.200,322.847 287.200 C 323.333 287.200,323.600 286.917,323.600 286.400 C 323.600 285.956,323.867 285.600,324.200 285.600 C 324.530 285.600,325.160 285.240,325.600 284.800 C 326.040 284.360,326.658 284.000,326.973 284.000 C 327.288 284.000,327.660 283.640,327.800 283.200 C 327.940 282.760,328.317 282.400,328.640 282.400 C 328.962 282.400,329.341 282.099,329.482 281.731 C 329.623 281.362,330.068 280.732,330.469 280.331 C 330.871 279.929,331.200 279.259,331.200 278.843 C 331.200 278.426,331.472 277.981,331.804 277.854 C 332.136 277.727,332.361 277.397,332.304 277.121 C 332.247 276.845,332.605 276.557,333.100 276.482 C 333.595 276.406,334.000 276.074,334.000 275.744 C 334.000 274.861,335.077 273.862,335.336 274.504 C 335.447 274.777,335.572 274.370,335.615 273.600 C 335.658 272.830,335.775 272.515,335.876 272.900 C 336.087 273.709,336.622 273.811,337.047 273.124 C 337.209 272.862,337.130 272.577,336.871 272.490 C 336.612 272.404,336.400 272.149,336.400 271.924 C 336.400 271.699,336.641 271.607,336.936 271.720 C 337.827 272.062,338.508 271.357,338.555 270.043 C 338.589 269.117,338.788 268.802,339.343 268.801 C 339.839 268.800,340.009 268.600,339.855 268.200 C 339.713 267.828,339.857 267.600,340.236 267.600 C 340.572 267.600,340.737 267.422,340.603 267.205 C 340.463 266.978,340.623 266.911,340.979 267.047 C 341.433 267.221,341.598 267.032,341.594 266.343 C 341.589 265.605,341.507 265.528,341.216 265.988 C 341.011 266.312,340.714 266.447,340.555 266.288 C 340.139 265.872,340.634 265.500,341.687 265.438 C 342.287 265.403,342.581 265.149,342.545 264.697 C 342.515 264.318,342.673 264.121,342.895 264.259 C 343.149 264.416,343.240 263.995,343.140 263.133 C 343.009 262.016,343.119 261.746,343.720 261.701 C 344.327 261.655,344.373 261.751,343.974 262.232 C 343.576 262.711,343.602 262.774,344.116 262.577 C 345.229 262.150,344.786 260.709,343.613 260.937 C 343.042 261.047,342.324 260.886,341.968 260.566 C 341.620 260.254,341.215 260.119,341.068 260.266 M289.698 261.066 C 289.421 261.177,289.297 261.433,289.421 261.634 C 289.545 261.835,289.412 262.003,289.124 262.006 C 288.732 262.011,288.747 262.105,289.181 262.380 C 289.906 262.838,290.522 262.496,290.250 261.785 C 290.137 261.492,290.260 261.164,290.522 261.057 C 290.785 260.951,290.820 260.863,290.600 260.863 C 290.380 260.863,289.974 260.954,289.698 261.066 M64.345 265.300 C 64.315 265.795,64.292 266.522,64.294 266.916 C 64.297 267.310,64.204 267.537,64.089 267.422 C 63.973 267.307,63.642 267.525,63.352 267.906 C 63.028 268.333,62.821 268.408,62.813 268.100 C 62.793 267.320,61.652 267.513,61.630 268.300 C 61.584 269.937,61.440 270.314,60.933 270.119 C 60.612 269.996,60.387 270.209,60.368 270.657 C 60.351 271.078,60.249 271.183,60.135 270.900 C 59.882 270.272,58.940 270.250,58.562 270.862 C 58.396 271.130,58.451 271.216,58.693 271.066 C 58.922 270.925,59.301 271.039,59.534 271.321 C 59.848 271.699,59.755 271.961,59.180 272.320 C 58.711 272.613,58.400 272.646,58.400 272.403 C 58.400 272.182,58.040 272.000,57.600 272.000 C 57.029 272.000,56.808 272.257,56.828 272.900 C 56.853 273.692,56.891 273.711,57.147 273.061 C 57.426 272.353,57.462 272.352,58.019 273.038 C 58.338 273.432,58.387 273.626,58.128 273.470 C 57.868 273.314,57.553 273.353,57.427 273.556 C 57.302 273.759,56.829 273.828,56.376 273.710 C 55.771 273.551,55.494 273.721,55.330 274.347 C 55.207 274.816,54.858 275.200,54.553 275.200 C 54.249 275.200,54.000 275.554,54.000 275.987 C 54.000 276.536,53.811 276.702,53.376 276.535 C 52.959 276.376,52.678 276.579,52.529 277.148 C 52.402 277.637,51.986 278.000,51.553 278.000 C 51.067 278.000,50.800 278.283,50.800 278.800 C 50.800 279.333,50.533 279.600,50.000 279.600 C 49.483 279.600,49.200 279.867,49.200 280.353 C 49.200 280.786,48.837 281.202,48.348 281.329 C 47.779 281.478,47.576 281.759,47.735 282.176 C 47.902 282.611,47.736 282.800,47.187 282.800 C 46.754 282.800,46.400 283.049,46.400 283.353 C 46.400 283.658,46.040 284.001,45.600 284.116 C 45.160 284.231,44.800 284.612,44.800 284.963 C 44.800 285.333,44.465 285.600,44.000 285.600 C 43.483 285.600,43.200 285.867,43.200 286.353 C 43.200 286.770,42.843 287.200,42.400 287.316 C 41.960 287.431,41.600 287.812,41.600 288.163 C 41.600 288.513,41.330 288.800,41.000 288.800 C 40.459 288.800,40.222 289.275,40.353 290.100 C 40.379 290.265,40.265 290.379,40.100 290.353 C 38.954 290.172,38.804 290.509,38.845 293.187 C 38.881 295.547,39.003 296.011,39.644 296.214 C 40.060 296.346,40.400 296.712,40.400 297.027 C 40.400 297.342,40.664 297.600,40.986 297.600 C 41.308 297.600,41.765 297.960,42.000 298.400 C 42.280 298.924,42.838 299.200,43.614 299.200 C 44.533 299.200,44.800 299.380,44.800 300.000 C 44.800 300.533,45.067 300.800,45.600 300.800 C 46.133 300.800,46.400 301.067,46.400 301.600 C 46.400 302.052,46.667 302.400,47.013 302.400 C 47.349 302.400,47.729 302.670,47.855 303.000 C 47.997 303.370,48.605 303.600,49.443 303.600 C 50.533 303.600,50.800 303.757,50.800 304.400 C 50.800 304.933,51.067 305.200,51.600 305.200 C 52.040 305.200,52.400 305.451,52.400 305.757 C 52.400 306.360,53.238 306.800,54.386 306.800 C 54.782 306.800,55.201 307.160,55.316 307.600 C 55.476 308.213,55.862 308.400,56.963 308.400 C 57.925 308.400,58.400 308.584,58.400 308.957 C 58.400 309.602,59.252 310.000,60.633 310.000 C 61.226 310.000,61.600 310.232,61.600 310.600 C 61.600 311.061,62.111 311.200,63.800 311.200 C 65.733 311.200,66.000 311.297,66.000 312.000 C 66.000 312.701,66.267 312.800,68.153 312.800 C 69.970 312.800,70.339 312.925,70.516 313.600 C 70.699 314.302,71.062 314.400,73.466 314.400 C 75.774 314.400,76.287 314.526,76.707 315.200 C 77.182 315.961,77.640 316.000,86.016 316.000 L 94.824 316.000 94.712 295.700 L 94.600 275.400 90.228 275.286 C 86.407 275.186,85.786 275.072,85.304 274.384 C 84.909 273.821,84.332 273.612,83.276 273.649 C 79.805 273.773,79.261 273.651,79.484 272.800 C 79.643 272.191,79.496 272.000,78.867 272.000 C 78.412 272.000,77.896 271.754,77.720 271.452 C 77.295 270.725,75.600 270.200,75.600 270.797 C 75.600 271.044,75.420 271.136,75.200 271.000 C 74.980 270.864,74.800 270.424,74.800 270.023 C 74.800 269.620,74.427 269.196,73.968 269.076 C 73.373 268.920,73.197 269.015,73.348 269.409 C 73.485 269.766,73.357 269.882,72.982 269.738 C 72.664 269.616,72.504 269.355,72.626 269.158 C 72.748 268.961,72.598 268.800,72.293 268.800 C 71.627 268.800,69.908 267.053,70.196 266.670 C 70.308 266.522,70.282 266.488,70.137 266.597 C 69.699 266.924,68.800 265.952,68.800 265.151 C 68.800 264.577,68.506 264.400,67.557 264.400 C 66.579 264.400,66.367 264.537,66.562 265.045 C 66.737 265.501,66.637 265.623,66.217 265.462 C 65.892 265.337,65.502 265.435,65.351 265.679 C 65.185 265.948,65.259 266.011,65.538 265.838 C 65.792 265.681,66.000 265.743,66.000 265.976 C 66.000 266.209,65.730 266.400,65.400 266.400 C 64.560 266.400,64.647 264.899,65.500 264.676 C 66.027 264.538,65.977 264.481,65.300 264.446 C 64.634 264.412,64.386 264.634,64.345 265.300 M266.183 272.772 C 266.479 273.251,265.726 273.725,265.193 273.396 C 264.746 273.119,265.040 272.400,265.600 272.400 C 265.794 272.400,266.056 272.568,266.183 272.772 " stroke="none" fill="#fc2944" fill-rule="evenodd"></path></g></svg>