<?xml version="1.0" encoding="utf-8"?>
<!-- Generator: Adobe Illustrator 22.0.1, SVG Export Plug-In . SVG Version: 6.00 Build 0)  -->
<svg version="1.1" id="Layer_1" xmlns="http://www.w3.org/2000/svg" xmlns:xlink="http://www.w3.org/1999/xlink" x="0px" y="0px"
	 viewBox="0 0 2038.8 364.2" style="enable-background:new 0 0 2038.8 364.2;" xml:space="preserve">
<style type="text/css">
	.st0{fill:#FFFFFF;}
	.st1{fill:none;stroke:#FFFFFF;stroke-width:6;stroke-miterlimit:10;}
</style>
	
	
		<g>
			<g>
				<path d="M52,210.9v36.9c-20.4,0-37.7-7.2-52-21.2l26.4-26.4C33.6,207.4,42.1,210.9,52,210.9z M93.9,216.7l-16.2-16.2
					c7.4-7.2,11-15.7,11-25.9V27.5h37.2v147.1c0,20.1-7.4,37.5-21.8,52L93.9,216.7z M104.1,226.6l-10.2-9.9L104.1,226.6z"/>
				<path d="M359.6,156.1c0,25.3-8.8,47.1-27,65c-17.9,17.9-39.9,26.7-65,26.7c-25.1,0-46.8-8.8-64.7-26.7s-26.7-39.9-26.7-65V27.5
					h36.6v128.6c0,15.1,5.2,28.1,15.7,38.6c10.7,11,24,16.2,39.1,16.2s28.1-5.5,38.8-16.2C317.2,184,323,171,323,156.1H359.6z"/>
				<path d="M483.6,27.5v219.7v0.3v0.3L300.4,83.2V27.5l146.5,131.9V27.5H483.6z"/>
				<path d="M642.7,27.5v36.9h-73.2v183.4h-36.9V64.4V27.5H642.7z"/>
				<path d="M668.9,210.9l-18.7,36.9h-40.8L719.6,27.5l73.5,147.1h-41.3l-32.2-64.7l-32.5,64.7L668.9,210.9z M829.7,247.8h-41
					l-18.2-36.6h40.8L829.7,247.8z"/>
				<path d="M1001.3,137.7c0,15.1-2.8,29.2-8.5,42.4c-6.1,13.5-13.8,25.1-23.7,35.2c-9.9,9.9-21.8,17.9-35.2,23.7
					c-13.2,5.8-27.5,8.8-42.7,8.8h-73.2l36.6-36.9h36.6c10.2,0,19.8-1.9,28.6-5.5c8.8-3.9,16.8-9.1,23.4-16
					c6.6-6.9,11.8-14.6,15.7-23.4c3.9-9.1,5.8-18.5,5.8-28.4c0-9.9-1.9-19.3-5.8-28.4c-3.9-8.8-9.1-16.5-16-23.4
					c-6.6-6.6-14.6-12.1-23.4-16c-8.8-3.6-18.5-5.5-28.4-5.5h-36.6l-36.6-36.9h73.2c15.1,0,29.2,3,42.7,8.8
					c13.2,5.8,25.1,13.8,35,23.7c10.2,10.2,17.9,21.8,24,35.2C998.5,108.5,1001.3,122.5,1001.3,137.7z"/>
				<path d="M1061.3,210.9l-18.7,36.9h-40.8L1112,27.5l73.5,147.1h-41.3l-32.2-64.7l-32.5,64.7L1061.3,210.9z M1222.1,247.8h-41
					l-18.2-36.6h40.8L1222.1,247.8z"/>
				<path d="M1225.4,156.1c-17.9,0-33-6.3-45.4-18.7c-12.4-12.7-18.7-27.8-18.7-45.7c0-17.6,6.3-32.5,18.7-45.2
					c12.4-12.7,27.5-19,45.4-19v36.9c-3.9,0-7.4,0.6-10.7,1.9c-3.6,1.4-6.3,3.3-9.1,6.1c-2.5,2.5-4.4,5.5-5.8,8.8s-1.9,6.9-1.9,10.5
					c0,7.7,2.5,14,7.7,19.6c5.5,5.5,11.8,8.3,19.8,8.3h54.8c17.9,0,33,6.3,45.4,18.7c12.7,12.7,19,27.8,19,45.4s-6.3,32.8-19,45.4
					c-12.4,12.4-27.5,18.7-45.4,18.7v-36.9c3.9,0,7.4-0.6,10.7-1.9c3.6-1.4,6.6-3.3,9.1-5.8s4.4-5.2,5.8-8.8
					c1.4-3.3,2.2-6.9,2.2-10.7c0-7.4-3-13.8-8.3-19.3c-5.5-5.5-11.8-8.3-19.6-8.3H1225.4z"/>
			</g>
			<g>
				<g>
					<path d="M1579.4,139.1c0,15.1-2.8,29.2-8.5,42.4c-6.1,13.5-13.8,25.1-23.7,35.3c-9.9,9.9-21.8,17.9-35.3,23.7
						c-13.2,5.8-27.5,8.8-42.7,8.8H1396l36.6-36.9h36.6c10.2,0,19.8-1.9,28.6-5.5c8.8-3.9,16.8-9.1,23.4-16
						c6.6-6.9,11.8-14.6,15.7-23.4c3.9-9.1,5.8-18.5,5.8-28.4c0-9.9-1.9-19.3-5.8-28.4c-3.9-8.8-9.1-16.5-16-23.4
						c-6.6-6.6-14.6-12.1-23.4-16c-8.8-3.6-18.5-5.5-28.4-5.5h-36.6L1396,29h73.3c15.1,0,29.2,3,42.7,8.8
						c13.2,5.8,25.1,13.8,35,23.7c10.2,10.2,17.9,21.8,24,35.3C1576.7,109.9,1579.4,124,1579.4,139.1z"/>
					<path d="M1741.3,29v36.9h-110.2L1594.5,29H1741.3z M1631.2,121h110.2v36.6h-110.2h-36.6V121H1631.2z M1631.2,212.4h110.2v36.9
						h-146.8v-3L1631.2,212.4z"/>
					<path d="M1817.6,29l89.8,179.3l-20.7,41L1776.6,29H1817.6z"/>
				</g>
				<path d="M2038.8,28.9l-110.2,220.3l-20.7-41l89.8-179.3H2038.8z"/>
				</g>
			
		</g>
		<circle cx="1367.5" cy="230.6" r="18.1"/>
	
</svg>
