<?xml version="1.0" encoding="utf-8"?>
<!-- Generator: Adobe Illustrator 22.0.1, SVG Export Plug-In . SVG Version: 6.00 Build 0)  -->
<svg version="1.1" id="Layer_1" xmlns="http://www.w3.org/2000/svg" xmlns:xlink="http://www.w3.org/1999/xlink" x="0px" y="0px"
	 viewBox="0 0 1520.4 365.5" style="enable-background:new 0 0 1520.4 365.5;" xml:space="preserve">
<style type="text/css">
	path {fill: #FFFFFF }
	.st0{fill:#FFFFFF;}
	.st1{fill:none;stroke:#FFFFFF;stroke-width:6;stroke-miterlimit:10;}
</style>
<g>
	<g>
		<path d="M58.9,207.4v41.7c-23,0-42.7-8.1-58.9-24l29.9-29.9C38,203.3,47.6,207.4,58.9,207.4z M106.2,213.9l-18.4-18.4
			c8.4-8.1,12.5-17.7,12.5-29.3V0h42v166.3c0,22.7-8.4,42.4-24.6,58.9L106.2,213.9z M117.7,225.1l-11.5-11.2L117.7,225.1z"/>
		<path d="M406.7,145.4c0,28.6-10,53.2-30.5,73.5c-20.2,20.2-45.2,30.2-73.5,30.2c-28.3,0-52.9-10-73.2-30.2
			c-20.2-20.2-30.2-45.2-30.2-73.5V0h41.4v145.4c0,17.1,5.9,31.8,17.7,43.6c12.1,12.5,27.1,18.4,44.2,18.4
			c17.1,0,31.8-6.2,43.9-18.4c12.1-12.1,18.7-26.8,18.7-43.6H406.7z"/>
		<path d="M546.8,0v248.5v0.3v0.3L339.7,62.9V0l165.7,149.2V0H546.8z"/>
		<path d="M726.7,0v41.7h-82.8v207.4h-41.7V41.7V0H726.7z"/>
		<path d="M756.3,207.4l-21.2,41.7h-46.1L813.6,0l83.1,166.3h-46.7l-36.4-73.2l-36.7,73.2L756.3,207.4z M938.2,249.1h-46.4
			l-20.5-41.4h46.1L938.2,249.1z"/>
		<path d="M1132.2,124.6c0,17.1-3.1,33-9.7,48c-6.9,15.3-15.6,28.3-26.8,39.9c-11.2,11.2-24.6,20.2-39.9,26.8
			c-14.9,6.5-31.1,10-48.3,10h-82.8l41.4-41.7h41.4c11.5,0,22.4-2.2,32.4-6.2c10-4.4,19-10.3,26.5-18.1c7.5-7.8,13.4-16.5,17.7-26.5
			c4.4-10.3,6.5-20.9,6.5-32.1s-2.2-21.8-6.5-32.1c-4.4-10-10.3-18.7-18.1-26.5c-7.5-7.5-16.5-13.7-26.5-18.1
			c-10-4-20.9-6.2-32.1-6.2h-41.4L924.8,0h82.8c17.1,0,33,3.4,48.3,10c14.9,6.5,28.3,15.6,39.5,26.8c11.5,11.5,20.2,24.6,27.1,39.9
			C1129,91.5,1132.2,107.4,1132.2,124.6z"/>
		<path d="M1200,207.4l-21.2,41.7h-46.1L1257.3,0l83.1,166.3h-46.7l-36.4-73.2l-36.7,73.2L1200,207.4z M1381.9,249.1h-46.4
			l-20.6-41.4h46.1L1381.9,249.1z"/>
		<path d="M1385.6,145.4c-20.2,0-37.4-7.2-51.4-21.2c-14-14.3-21.2-31.4-21.2-51.7c0-19.9,7.2-36.7,21.2-51.1
			c14-14.3,31.1-21.5,51.4-21.5v41.7c-4.4,0-8.4,0.6-12.1,2.2c-4,1.6-7.2,3.7-10.3,6.9c-2.8,2.8-5,6.2-6.5,10
			c-1.6,3.7-2.2,7.8-2.2,11.8c0,8.7,2.8,15.9,8.7,22.1c6.2,6.2,13.4,9.3,22.4,9.3h62c20.2,0,37.4,7.2,51.4,21.2
			c14.3,14.3,21.5,31.4,21.5,51.4s-7.2,37.1-21.5,51.4c-14,14-31.1,21.2-51.4,21.2v-41.7c4.4,0,8.4-0.6,12.1-2.2
			c4-1.6,7.5-3.7,10.3-6.5c2.8-2.8,5-5.9,6.5-10c1.6-3.7,2.5-7.8,2.5-12.1c0-8.4-3.4-15.6-9.3-21.8c-6.2-6.2-13.4-9.3-22.1-9.3
			H1385.6z"/>
	</g>
	<g>
		<path d="M124.1,302.9l-31.4,62.6h-4.8l31.4-62.6H124.1z"/>
		<path d="M181,302.9l-31.4,62.6h-4.8l31.4-62.6H181z"/>
		<path d="M249.7,309.3h4.4l13,39.6l13.5-39.4h5.6l-16.9,47.7h-4.5l-13-38.4l-13,38.4h-4.5l-16.9-47.7h5.8l13.5,39.4L249.7,309.3z"
			/>
		<path d="M363.9,314.3H335v16.2h25.8v4.9H335v16.6h29.2v4.9h-34.5v-47.3h34.2V314.3z"/>
		<path d="M499.6,352.7c-1.3,1-2.8,1.9-4.3,2.6s-3.2,1.3-4.9,1.7c-1.8,0.4-3.7,0.6-5.9,0.6c-3.4,0-6.6-0.6-9.5-1.9
			c-2.9-1.3-5.4-3-7.5-5.2c-2.1-2.2-3.8-4.8-5-7.7c-1.2-3-1.8-6.2-1.8-9.6c0-3.4,0.6-6.6,1.8-9.5c1.2-3,2.9-5.6,5-7.8
			c2.1-2.2,4.6-4,7.6-5.3c2.9-1.3,6.1-1.9,9.6-1.9c2.2,0,4.1,0.2,5.8,0.5c1.7,0.4,3.3,0.9,4.8,1.5c1.5,0.7,2.9,1.4,4.1,2.4
			c1.3,0.9,2.5,1.9,3.7,3.1l-3.7,3.9c-2-1.9-4.2-3.4-6.5-4.7c-2.3-1.2-5.1-1.8-8.3-1.8c-2.6,0-5,0.5-7.3,1.5c-2.2,1-4.2,2.4-5.8,4.1
			c-1.6,1.8-2.9,3.8-3.9,6.2c-0.9,2.4-1.4,4.9-1.4,7.7c0,2.7,0.5,5.3,1.4,7.7c0.9,2.4,2.2,4.5,3.9,6.2c1.6,1.8,3.6,3.1,5.8,4.2
			c2.2,1,4.7,1.5,7.3,1.5c3.2,0,6-0.6,8.4-1.8c2.3-1.2,4.6-2.9,6.9-5l3.5,3.4C502.2,350.6,500.9,351.7,499.6,352.7z"/>
		<path d="M590.6,356.8h-5.7l-5.5-12.5h-25.8l-5.6,12.5h-5.5l21.6-47.7h5L590.6,356.8z M566.5,315.4l-10.8,24.1h21.6L566.5,315.4z"
			/>
		<path d="M668.6,309.5h5.2v47.3h-4.3L639,318v38.8h-5.2v-47.3h5l29.8,37.9V309.5z"/>
		<path d="M811.8,352.7c-1.3,1-2.8,1.9-4.3,2.6c-1.5,0.7-3.2,1.3-4.9,1.7c-1.8,0.4-3.7,0.6-5.9,0.6c-3.4,0-6.6-0.6-9.5-1.9
			c-2.9-1.3-5.4-3-7.5-5.2c-2.1-2.2-3.8-4.8-5-7.7s-1.8-6.2-1.8-9.6c0-3.4,0.6-6.6,1.8-9.5c1.2-3,2.8-5.6,5-7.8
			c2.1-2.2,4.6-4,7.6-5.3c2.9-1.3,6.1-1.9,9.6-1.9c2.2,0,4.1,0.2,5.8,0.5c1.7,0.4,3.3,0.9,4.8,1.5c1.5,0.7,2.9,1.4,4.1,2.4
			c1.3,0.9,2.5,1.9,3.7,3.1l-3.7,3.9c-2-1.9-4.2-3.4-6.5-4.7c-2.3-1.2-5.1-1.8-8.3-1.8c-2.6,0-5,0.5-7.3,1.5c-2.2,1-4.2,2.4-5.8,4.1
			c-1.6,1.8-2.9,3.8-3.9,6.2c-0.9,2.4-1.4,4.9-1.4,7.7c0,2.7,0.5,5.3,1.4,7.7c0.9,2.4,2.2,4.5,3.9,6.2c1.6,1.8,3.6,3.1,5.8,4.2
			c2.2,1,4.7,1.5,7.3,1.5c3.2,0,6-0.6,8.4-1.8c2.3-1.2,4.6-2.9,6.9-5l3.5,3.4C814.4,350.6,813.1,351.7,811.8,352.7z"/>
		<path d="M901.8,342.4c-1.2,3-2.8,5.6-4.9,7.8c-2.1,2.3-4.7,4-7.6,5.4c-3,1.3-6.3,2-9.9,2c-3.6,0-6.9-0.7-9.8-2
			c-3-1.3-5.5-3.1-7.6-5.3c-2.1-2.2-3.8-4.8-4.9-7.8c-1.1-3-1.7-6.1-1.7-9.4c0-3.3,0.6-6.4,1.8-9.4c1.2-3,2.8-5.6,4.9-7.8
			c2.1-2.3,4.7-4,7.6-5.4c3-1.3,6.3-2,9.9-2c3.6,0,6.9,0.7,9.8,2c3,1.3,5.5,3.1,7.6,5.3s3.8,4.8,4.9,7.8c1.1,3,1.7,6.1,1.7,9.4
			C903.6,336.4,903,339.5,901.8,342.4z M896.7,325.6c-0.9-2.4-2.2-4.5-3.9-6.2c-1.7-1.8-3.6-3.2-5.9-4.2c-2.3-1-4.8-1.6-7.5-1.6
			s-5.2,0.5-7.5,1.5c-2.3,1-4.2,2.4-5.8,4.2c-1.6,1.8-2.9,3.8-3.8,6.2c-0.9,2.4-1.4,4.9-1.4,7.6c0,2.7,0.5,5.2,1.4,7.6
			c0.9,2.4,2.2,4.5,3.9,6.2c1.7,1.8,3.6,3.2,5.9,4.2c2.3,1,4.8,1.6,7.5,1.6c2.7,0,5.2-0.5,7.5-1.5c2.3-1,4.2-2.4,5.8-4.2
			c1.6-1.8,2.9-3.8,3.8-6.2c0.9-2.4,1.4-4.9,1.4-7.6C898,330.5,897.6,328,896.7,325.6z"/>
		<path d="M988.4,342.4c-1.2,2.9-2.9,5.4-5.2,7.5c-2.2,2.1-4.9,3.8-8,5c-3.1,1.2-6.5,1.8-10.2,1.8h-16.4v-47.3h16.4
			c3.7,0,7.1,0.6,10.2,1.8c3.1,1.2,5.7,2.8,8,5c2.2,2.1,4,4.6,5.2,7.5c1.2,2.9,1.8,6,1.8,9.3C990.3,336.4,989.6,339.5,988.4,342.4z
			 M983.3,325.8c-0.9-2.3-2.2-4.3-3.9-6s-3.8-3-6.2-4c-2.4-1-5.1-1.5-8.1-1.5H954v37.5h11.1c3,0,5.7-0.5,8.1-1.4
			c2.4-0.9,4.5-2.3,6.2-4c1.7-1.7,3-3.7,3.9-5.9c0.9-2.3,1.4-4.7,1.4-7.4C984.7,330.6,984.2,328.1,983.3,325.8z"/>
		<path d="M1069.5,314.3h-28.9v16.2h25.8v4.9h-25.8v16.6h29.2v4.9h-34.5v-47.3h34.2V314.3z"/>
		<path d="M1174.3,309.5v47.3h-5.3v-47.3H1174.3z"/>
		<path d="M1239.8,356.8h-5.3v-42.4h-15.9v-4.9h37.1v4.9h-15.9V356.8z"/>
		<path d="M1321.6,302.9l-31.4,62.6h-4.8l31.4-62.6H1321.6z"/>
		<path d="M1378.4,302.9l-31.4,62.6h-4.8l31.4-62.6H1378.4z"/>
	</g>
</g>
</svg>
