<?xml version="1.0" encoding="utf-8"?>
<!-- Generator: Adobe Illustrator 22.0.1, SVG Export Plug-In . SVG Version: 6.00 Build 0)  -->
<svg version="1.1" id="Layer_1" xmlns="http://www.w3.org/2000/svg" xmlns:xlink="http://www.w3.org/1999/xlink" x="0px" y="0px"
	 viewBox="0 0 596.5 686.8" style="enable-background:new 0 0 596.5 686.8;" xml:space="preserve">
<style type="text/css">
	.st0{fill:#FFFFFF;}
	.st1{fill:none;stroke:#FFFFFF;stroke-width:6;stroke-miterlimit:10;}
</style>
<g>
	<path d="M3,30.1h41.1l24.5,81.3l27.1-81.7h33.5l27.1,81.7l24.5-81.3h40.3l-47,141.5h-33.9L112,90.7l-28.1,80.9H50L3,30.1z"/>
	<path d="M236.6,30.1h113v33.1h-74.4v21.3h67.4v30.7h-67.4v22.3h75.4v33.1h-114V30.1z"/>
	<path d="M7.6,261.2v-0.4c0-40.9,31.5-73,74-73c28.7,0,47.2,12,59.6,29.3L112,239.8c-8-10-17.3-16.5-30.7-16.5
		c-19.7,0-33.5,16.7-33.5,37.1v0.4c0,21.1,13.8,37.5,33.5,37.5c14.6,0,23.3-6.8,31.7-17.1l29.3,20.9c-13.2,18.3-31.1,31.7-62.2,31.7
		C39.9,333.9,7.6,303.2,7.6,261.2z"/>
	<path d="M206.3,189.6h37.5l59.8,141.5h-41.7L251.6,306h-54.2l-10,25.1h-40.9L206.3,189.6z M240.4,275.7l-15.7-39.9l-15.9,39.9
		H240.4z"/>
	<path d="M317.2,190.6h36.3l57.8,74.2v-74.2h38.5v140.5h-34.1l-60-77.1v77.1h-38.5V190.6z"/>
	<path d="M7.6,421.8v-0.4c0-40.9,31.5-73,74-73c28.7,0,47.2,12,59.6,29.3L112,400.3c-8-10-17.3-16.5-30.7-16.5
		c-19.7,0-33.5,16.7-33.5,37.1v0.4c0,21.1,13.8,37.5,33.5,37.5c14.6,0,23.3-6.8,31.7-17.1l29.3,20.9c-13.2,18.3-31.1,31.7-62.2,31.7
		C39.9,494.4,7.6,463.7,7.6,421.8z"/>
	<path d="M150.1,421.8v-0.4c0-40.3,32.5-73,75.8-73s75.4,32.3,75.4,72.6v0.4c0,40.3-32.5,73-75.8,73S150.1,462.1,150.1,421.8z
		 M261.7,421.8v-0.4c0-20.3-14.6-37.9-36.1-37.9c-21.3,0-35.5,17.3-35.5,37.5v0.4c0,20.3,14.6,37.9,35.9,37.9
		C247.4,459.3,261.7,442,261.7,421.8z"/>
	<path d="M321.7,351.1h54.2c50.2,0,79.3,28.9,79.3,69.4v0.4c0,40.5-29.5,70.6-80.1,70.6h-53.4V351.1z M376.4,457.1
		c23.3,0,38.7-12.8,38.7-35.5v-0.4c0-22.5-15.5-35.5-38.7-35.5h-15.9v71.4H376.4z"/>
	<path d="M475.2,351.1h113v33.1h-74.4v21.3h67.4v30.7h-67.4v22.3h75.4v33.1h-114V351.1z"/>
	<path d="M13.2,511.7h39.1v140.5H13.2V511.7z"/>
	<path d="M112.4,545.8H70.2v-34.1h123.2v34.1h-42.1v106.3h-38.9V545.8z"/>
</g>
</svg>
